<?xml version="1.0" encoding="UTF-8" standalone="no"?>
<svg width="550px" height="628px" viewBox="0 0 550 628" version="1.1" xmlns="http://www.w3.org/2000/svg" xmlns:xlink="http://www.w3.org/1999/xlink">
    <!-- Generator: Sketch 46.2 (44496) - http://www.bohemiancoding.com/sketch -->
    <title>Slice</title>
    <desc>Created with Sketch.</desc>
    <defs></defs>
    <g id="Page-1" stroke="none" stroke-width="1" fill="none" fill-rule="evenodd">
        <path d="M525.855,49.602 C525.368,49.896 524.917,50.271 524.533,50.689 C524.353,50.901 524.193,51.125 524.057,51.368 C523.832,51.721 523.751,52.177 523.704,52.581 C523.659,52.969 523.671,53.326 523.718,53.711 C523.749,53.956 523.782,54.201 523.815,54.447 C523.896,55.162 523.938,55.86 523.887,56.578 C523.782,57.153 523.621,57.698 523.414,58.246 C523.065,59.001 522.677,59.718 522.195,60.395 C521.845,60.798 521.465,61.15 521.055,61.487 C519.791,62.354 518.401,62.994 517.001,63.605 C516.988,63.596 516.977,63.585 516.963,63.577 C516.679,63.409 516.413,63.411 516.105,63.45 C515.28,63.511 514.458,63.409 513.639,63.303 C512.458,63.13 511.284,62.906 510.123,62.627 C509.487,62.474 508.859,62.303 508.239,62.095 C507.613,61.883 506.997,61.646 506.382,61.412 C505.072,60.916 503.747,60.506 502.395,60.145 C501.145,59.813 499.866,59.527 498.596,59.282 C497.698,59.111 496.803,58.934 495.904,58.774 C497.872,57.967 499.841,57.161 501.813,56.366 C504.574,55.255 507.379,54.231 510.192,53.258 C511.708,52.734 513.226,52.214 514.757,51.741 C516.168,51.302 517.589,50.904 519.015,50.517 C521.846,49.746 524.659,48.918 527.494,48.174 C528.095,48.017 528.698,47.869 529.299,47.713 C529.1,47.824 528.904,47.941 528.704,48.05 C527.756,48.57 526.781,49.045 525.855,49.602 Z M511.311,72.767 C511.136,73.146 510.944,73.503 510.722,73.862 C510.385,74.262 510.025,74.617 509.62,74.963 C509.378,75.169 509.114,75.356 508.861,75.552 C508.96,75.476 509.058,75.401 509.155,75.325 C507.948,76.141 506.698,76.867 505.426,77.581 C504.167,78.287 502.881,78.948 501.646,79.7 C500.898,80.156 500.162,80.63 499.43,81.113 C498.056,82.018 496.636,83.203 496.051,84.794 C495.97,85.015 495.896,85.233 495.838,85.455 C495.481,85.095 495.124,84.737 494.76,84.385 C494.387,84.024 493.989,83.687 493.602,83.34 C493.21,82.99 492.831,82.625 492.455,82.256 C491.728,81.535 491.064,80.748 490.263,80.106 C489.782,79.722 489.295,79.36 488.782,79.021 C488.342,78.73 487.859,78.494 487.384,78.264 C488.795,77.86 490.206,77.46 491.62,77.071 C493.219,76.633 494.813,76.192 496.398,75.705 C498.021,75.203 499.637,74.669 501.262,74.171 C502.806,73.698 504.342,73.219 505.854,72.65 C507.153,72.162 508.431,71.597 509.754,71.179 C510.404,70.976 511.063,70.792 511.726,70.631 C511.75,70.625 511.773,70.622 511.798,70.616 C511.795,70.742 511.801,70.866 511.792,70.994 C511.684,71.602 511.52,72.181 511.311,72.767 Z M486.535,101.669 C485.75,102.195 484.979,102.746 484.229,103.319 C482.877,104.355 481.58,105.593 480.791,107.12 C480.558,107.572 480.443,108.052 480.395,108.544 C480.262,108.428 480.133,108.308 479.994,108.198 C479.404,107.731 478.805,107.283 478.189,106.852 C477.147,106.12 476.038,105.474 474.944,104.822 C473.762,104.114 472.562,103.449 471.331,102.833 C470.109,102.223 468.848,101.669 467.572,101.179 C466.221,100.661 464.853,100.218 463.466,99.807 C463.246,99.741 463.023,99.688 462.803,99.627 C463.349,99.456 463.895,99.29 464.431,99.091 C464.702,98.99 464.972,98.884 465.242,98.781 C465.276,98.825 465.309,98.871 465.349,98.911 C465.45,98.991 465.553,99.07 465.656,99.15 C465.894,99.286 466.148,99.356 466.421,99.356 C468.036,99.566 469.664,99.827 471.291,99.896 C472.807,99.96 474.334,99.98 475.849,99.894 C477.37,99.809 478.886,99.66 480.4,99.511 C481.995,99.354 483.588,99.185 485.177,98.977 C487.096,98.726 489.004,98.402 490.92,98.131 C491.317,98.083 491.716,98.044 492.114,98.003 C490.274,99.254 488.383,100.431 486.535,101.669 Z M483.094,108.88 C483.099,108.845 483.103,108.81 483.108,108.775 C483.103,108.81 483.1,108.846 483.095,108.882 C483.095,108.881 483.095,108.881 483.094,108.88 Z M483.095,108.883 C483.093,108.891 483.092,108.899 483.091,108.906 C483.092,108.898 483.093,108.89 483.094,108.882 C483.094,108.882 483.094,108.883 483.095,108.883 Z M481.511,114.37 C481.424,114.544 481.329,114.706 481.221,114.867 C481.012,115.095 480.798,115.301 480.564,115.505 C479.246,116.467 477.767,117.151 476.275,117.806 C474.887,118.416 473.507,119.04 472.134,119.682 C471.467,119.996 470.812,120.333 470.154,120.661 C469.913,120.782 469.68,120.917 469.444,121.048 C468.989,120.942 468.489,120.943 468.03,120.925 C467.328,120.9 466.627,120.843 465.928,120.802 C464.402,120.715 462.877,120.686 461.35,120.662 C458.28,120.613 455.205,120.566 452.152,120.248 C451.929,120.226 451.706,120.197 451.483,120.167 C449.23,119.828 446.996,119.366 444.818,118.69 C443.709,118.345 442.604,117.986 441.509,117.597 C440.418,117.211 439.343,116.793 438.27,116.358 C436.847,115.735 435.436,115.09 434.031,114.427 C433.781,114.311 433.539,114.234 433.282,114.234 C433.167,114.234 433.05,114.249 432.928,114.283 C432.655,114.358 432.41,114.516 432.226,114.729 C432.13,114.667 432.04,114.599 431.942,114.539 C431.302,114.146 430.64,113.811 429.96,113.497 C428.541,112.841 427.066,112.302 425.61,111.741 C424.259,111.221 422.915,110.683 421.573,110.14 C420.926,109.877 420.28,109.608 419.635,109.338 C418.427,108.824 417.222,108.307 416.03,107.759 C414.619,107.11 413.218,106.439 411.819,105.762 C409.144,104.467 406.476,103.16 403.805,101.857 C401.298,100.631 398.809,99.367 396.367,98.013 C393.822,96.601 391.291,95.154 388.71,93.81 C388.61,93.758 388.511,93.707 388.412,93.656 C389.749,93.35 391.088,93.048 392.428,92.761 C395.679,92.066 398.933,91.393 402.194,90.738 C403.326,90.51 404.459,90.284 405.592,90.058 C405.642,90.095 405.687,90.136 405.743,90.169 C406.438,90.574 407.467,90.36 407.853,89.616 C407.854,89.612 407.856,89.607 407.859,89.602 C412.02,88.762 416.175,87.888 420.286,86.833 C420.81,86.698 421.331,86.556 421.853,86.419 C421.957,86.547 422.079,86.66 422.227,86.747 C425.114,88.436 428.004,90.12 430.912,91.774 C432.107,92.455 433.331,93.087 434.544,93.737 C435.574,94.288 436.61,94.835 437.658,95.351 C438.286,95.661 438.906,95.995 439.545,96.279 C440.252,96.593 440.954,96.94 441.68,97.213 C442.32,97.457 442.958,97.716 443.611,97.928 C444.292,98.151 444.972,98.371 445.656,98.577 C446.929,98.96 448.205,99.348 449.503,99.644 C450.862,99.953 452.235,100.196 453.607,100.437 C456.122,100.882 458.643,101.295 461.127,101.891 C462.323,102.176 463.509,102.523 464.683,102.886 C465.871,103.253 467.031,103.686 468.187,104.142 C469.932,104.888 471.634,105.701 473.28,106.649 C474.958,107.614 476.645,108.563 478.207,109.705 C478.934,110.288 479.593,110.926 480.245,111.594 C480.649,112.006 481.037,112.434 481.422,112.865 C481.482,113.075 481.536,113.287 481.58,113.504 C481.593,113.709 481.593,113.907 481.581,114.113 C481.561,114.199 481.538,114.285 481.511,114.37 Z M463.761,125.873 C463.189,126.622 462.882,127.589 462.645,128.484 C462.563,128.792 462.509,129.106 462.423,129.414 C462.277,129.945 462.115,130.461 461.917,130.973 C461.713,131.395 461.491,131.792 461.229,132.178 C460.988,132.455 460.736,132.704 460.458,132.949 C459.364,133.742 458.181,134.338 456.956,134.904 C454.336,135.965 451.663,136.868 448.984,137.771 C447.334,138.325 445.688,138.927 444.133,139.706 C443.404,140.071 442.756,140.56 442.143,141.089 C441.828,141.356 441.594,141.721 441.345,142.045 C441.129,142.328 441.017,142.704 440.906,143.038 C440.778,143.436 440.788,143.919 440.768,144.329 C440.751,144.633 440.807,145 440.833,145.314 C440.85,145.495 440.861,145.677 440.874,145.859 C440.885,146.021 440.887,146.178 440.882,146.334 C440.833,146.363 440.782,146.387 440.731,146.414 C440.715,146.397 440.707,146.373 440.687,146.357 C440.239,146.001 439.791,145.648 439.326,145.313 C439.01,145.085 438.686,144.866 438.363,144.649 C437.953,144.371 437.542,144.096 437.131,143.82 C437.176,143.687 437.206,143.549 437.206,143.403 C437.206,142.664 436.588,142.047 435.85,142.047 C435.323,142.047 434.863,142.363 434.64,142.81 C434.466,142.902 434.315,143.035 434.217,143.202 C434.133,143.347 434.089,143.51 434.08,143.676 C433.756,143.641 433.431,143.61 433.104,143.585 C431.81,143.481 430.517,143.368 429.226,143.228 C426.535,142.934 423.853,142.575 421.17,142.233 C418.894,141.942 416.608,141.726 414.329,141.452 C413.862,141.375 413.396,141.301 412.934,141.195 C412.385,141.072 411.845,140.924 411.302,140.775 C410.848,140.648 410.396,140.493 409.95,140.342 C409.23,140.102 408.51,139.861 407.792,139.618 C407.672,139.577 407.548,139.558 407.426,139.558 C406.835,139.558 406.27,140.003 406.112,140.571 C406.053,140.786 406.054,140.994 406.094,141.191 C405.604,140.87 405.094,140.577 404.588,140.28 C402.515,139.06 400.365,137.975 398.236,136.854 C396.103,135.73 393.976,134.594 391.837,133.485 C390.719,132.905 389.6,132.332 388.47,131.776 C387.36,131.227 386.238,130.703 385.121,130.173 C382.896,129.121 380.723,127.972 378.594,126.735 C376.516,125.528 374.496,124.206 372.515,122.846 C370.452,121.434 368.387,120.033 366.309,118.649 C364.221,117.258 362.114,115.898 360.005,114.54 C357.874,113.169 355.751,111.791 353.637,110.398 C351.799,109.189 349.972,107.961 348.159,106.715 C346.896,105.846 345.633,104.979 344.37,104.111 C344.154,103.963 343.943,103.806 343.73,103.655 C344.831,103.427 345.931,103.201 347.031,102.968 C353.186,101.663 359.349,100.403 365.493,99.056 C368.554,98.385 371.597,97.623 374.641,96.872 C377.674,96.126 380.723,95.439 383.765,94.731 C384.159,94.639 384.554,94.549 384.947,94.457 C387.301,95.674 389.639,96.919 391.95,98.216 C394.505,99.654 397.036,101.143 399.643,102.489 C402.236,103.829 404.843,105.146 407.438,106.48 C410.047,107.818 412.637,109.204 415.298,110.436 C417.359,111.39 419.434,112.308 421.521,113.205 C423.487,114.049 425.478,114.832 427.454,115.652 C428.186,115.977 428.912,116.308 429.613,116.695 C430.264,117.051 430.868,117.467 431.469,117.897 C432.027,118.359 432.57,118.83 433.08,119.35 C433.589,119.869 434.047,120.426 434.499,120.991 C435.323,122.136 436.085,123.306 436.805,124.519 C437.522,125.729 438.142,126.999 438.769,128.258 C439.417,129.558 440.067,130.86 440.754,132.14 C441.466,133.468 442.245,134.777 443.21,135.939 C443.505,136.294 443.803,136.639 444.113,136.979 C444.496,137.4 444.941,137.76 445.386,138.113 C445.68,138.346 445.948,138.509 446.34,138.509 C446.697,138.509 447.044,138.364 447.297,138.113 C447.837,137.571 447.788,136.749 447.297,136.2 C446.636,135.465 445.96,134.749 445.329,133.988 C444.934,133.453 444.56,132.911 444.207,132.346 C443.85,131.773 443.53,131.176 443.214,130.578 C442.532,129.285 441.895,127.97 441.267,126.651 C440.004,124.004 438.688,121.357 436.867,119.038 C436.793,118.943 436.719,118.847 436.644,118.751 C436.967,118.89 437.29,119.03 437.616,119.163 C439.093,119.769 440.587,120.313 442.088,120.847 C443.591,121.382 445.096,121.912 446.632,122.344 C448.127,122.768 449.645,123.105 451.184,123.335 C454.167,123.78 457.181,123.829 460.191,123.843 C461.649,123.849 463.107,123.847 464.565,123.8 C464.916,123.789 465.267,123.781 465.617,123.771 C464.92,124.405 464.332,125.126 463.761,125.873 Z M429.608,149.193 C427.841,149.633 426.072,150.082 424.303,150.516 C423.185,150.792 422.114,151.156 421.056,151.609 C420.424,151.881 419.897,152.376 419.335,152.765 C418.883,153.08 418.403,153.343 417.905,153.573 C416.736,154.01 415.514,154.284 414.281,154.501 C414.592,154.155 414.66,153.636 414.422,153.213 C414.232,152.872 414.094,152.505 413.901,152.167 C413.73,151.863 413.557,151.563 413.384,151.261 C413.108,150.784 412.841,150.301 412.582,149.813 C411.995,148.71 411.436,147.593 410.873,146.475 C410.164,145.055 409.299,143.714 408.106,142.649 C408.074,142.621 408.04,142.595 408.008,142.568 C409.17,142.96 410.334,143.343 411.517,143.675 C412.87,144.051 414.279,144.207 415.67,144.376 C418.385,144.702 421.099,145.041 423.819,145.308 C425.781,145.5 427.747,145.665 429.711,145.81 C431.593,145.951 433.483,145.962 435.356,146.188 C435.631,146.234 435.893,146.293 436.152,146.386 C436.289,146.452 436.421,146.524 436.553,146.599 C436.886,146.789 437.28,146.794 437.609,146.646 C437.815,146.78 438.023,146.911 438.236,147.032 C438.304,147.07 438.369,147.109 438.436,147.148 C437.328,147.431 436.203,147.662 435.093,147.906 C433.259,148.308 431.432,148.738 429.608,149.193 Z M406.332,155.278 C404.449,155.374 402.562,155.367 400.679,155.347 C400.676,155.246 400.665,155.145 400.638,155.046 C400.542,154.699 400.332,154.489 400.053,154.283 C399.436,153.829 398.76,153.529 398.017,153.345 C397.656,153.256 397.291,153.182 396.928,153.107 C396.187,152.954 395.447,152.795 394.705,152.642 C393.273,152.346 391.853,152.009 390.441,151.624 C388.938,151.212 387.441,150.774 385.957,150.299 C384.537,149.846 383.148,149.297 381.77,148.733 C381.551,148.643 381.333,148.554 381.114,148.465 C378.902,147.522 376.714,146.514 374.612,145.341 C372.079,143.928 369.564,142.486 367.053,141.038 C366.805,140.895 366.531,140.827 366.26,140.827 C365.937,140.827 365.625,140.934 365.357,141.115 C364.89,140.634 364.347,140.209 363.835,139.776 C363.217,139.254 362.557,138.773 361.908,138.285 C359.724,136.646 357.399,135.202 355.111,133.718 C353.957,132.969 352.807,132.215 351.636,131.493 C350.414,130.738 349.185,129.998 347.957,129.252 C345.474,127.74 343.049,126.142 340.613,124.553 C339.524,123.843 338.426,123.13 337.296,122.489 C336.02,121.769 334.734,121.068 333.441,120.379 C331.054,119.106 328.614,117.929 326.257,116.6 C323.798,115.213 321.381,113.745 319.014,112.207 C316.621,110.654 314.228,109.102 311.832,107.554 C314.09,107.292 316.348,107.046 318.611,106.846 C321.621,106.581 324.636,106.382 327.642,106.09 C328.592,105.996 329.54,105.905 330.49,105.813 C331.283,105.735 332.073,105.621 332.864,105.525 C334.473,105.327 336.072,105.072 337.675,104.825 C338.439,104.707 339.2,104.548 339.961,104.409 C340.352,104.338 340.742,104.259 341.132,104.182 C341.685,104.584 342.235,104.989 342.787,105.389 C343.707,106.056 344.649,106.693 345.583,107.341 C347.604,108.738 349.632,110.127 351.665,111.507 C355.816,114.323 360.048,117.017 364.2,119.832 C368.259,122.581 372.192,125.515 376.33,128.148 C378.365,129.443 380.488,130.609 382.645,131.686 C383.765,132.245 384.895,132.787 386.02,133.334 C387.146,133.88 388.26,134.449 389.369,135.027 C391.52,136.144 393.655,137.292 395.799,138.426 C397.936,139.558 400.09,140.655 402.217,141.807 C402.884,142.17 403.544,142.543 404.199,142.925 C404.935,143.351 405.679,143.776 406.366,144.279 C406.788,144.621 407.168,144.997 407.52,145.412 C407.733,145.699 407.938,145.989 408.139,146.289 C408.377,146.653 408.575,147.048 408.779,147.431 C409.156,148.139 409.511,148.861 409.872,149.579 C410.247,150.325 410.618,151.073 411.002,151.816 C411.199,152.201 411.394,152.589 411.605,152.964 C411.918,153.519 412.235,154.098 412.698,154.542 C412.772,154.613 412.855,154.671 412.943,154.719 C412.742,154.749 412.541,154.78 412.341,154.809 C410.341,155.037 408.343,155.176 406.332,155.278 Z M391.132,155.933 C390.776,156.01 390.426,156.092 390.073,156.181 C389.573,156.308 389.104,156.518 388.631,156.72 C388.136,156.93 387.66,157.193 387.18,157.434 C386.75,157.601 386.33,157.731 385.875,157.822 C384.862,157.906 383.868,157.81 382.861,157.69 C381.513,157.495 380.171,157.274 378.832,157.022 C377.342,156.738 375.859,156.414 374.375,156.11 C373.535,155.939 372.696,155.765 371.856,155.598 C371.844,155.412 371.79,155.232 371.703,155.052 C371.252,154.127 370.775,153.215 370.341,152.281 C370.12,151.727 369.926,151.171 369.757,150.597 C369.571,149.959 369.441,149.3 369.301,148.651 C369.164,148.019 369.039,147.368 368.838,146.753 C368.695,146.319 368.541,145.892 368.369,145.472 C370.368,146.629 372.372,147.777 374.414,148.851 C375.803,149.581 377.232,150.227 378.666,150.857 C380.108,151.491 381.582,152.087 383.069,152.601 C384.295,153.023 385.534,153.38 386.789,153.702 C388.069,154.03 389.35,154.359 390.641,154.644 C391.901,154.924 393.17,155.171 394.438,155.415 C394.476,155.423 394.513,155.431 394.551,155.439 C394.52,155.442 394.488,155.442 394.457,155.445 C393.34,155.561 392.228,155.694 391.132,155.933 Z M367.779,155.066 C367.639,155.072 367.498,155.076 367.357,155.08 C367.09,155.111 366.823,155.145 366.556,155.182 C366.083,155.319 365.583,155.46 365.145,155.696 C364.753,155.908 364.402,156.131 364.054,156.408 C363.873,156.55 363.694,156.693 363.516,156.835 C363.402,156.915 363.284,156.987 363.162,157.052 C362.912,157.136 362.67,157.198 362.413,157.246 C361.38,157.27 360.363,157.142 359.342,157.013 C357.761,156.79 356.184,156.535 354.624,156.194 C353.623,155.973 352.636,155.733 351.645,155.472 C350.773,155.241 349.919,154.942 349.071,154.642 C347.317,154.02 345.601,153.3 343.815,152.77 C343.412,152.651 343.006,152.539 342.596,152.444 C342.451,152.258 342.301,152.077 342.135,151.907 C341.882,151.649 341.561,151.447 341.27,151.233 C340.805,150.894 340.301,150.6 339.817,150.29 C338.876,149.682 337.959,149.039 337.064,148.363 C333.197,145.259 329.791,141.618 326.467,137.952 C326.257,137.722 325.962,137.613 325.664,137.613 C325.435,137.613 325.205,137.679 325.011,137.801 C324.051,136.899 323.052,136.029 321.989,135.245 C320.896,134.44 319.781,133.673 318.639,132.937 C317.574,132.252 316.483,131.605 315.404,130.938 C313.029,129.472 310.702,127.934 308.359,126.415 C306.146,124.98 303.915,123.564 301.698,122.131 C299.445,120.671 297.18,119.229 294.899,117.809 C293.77,117.108 292.64,116.405 291.513,115.699 C290.533,115.089 289.557,114.473 288.565,113.888 C287.936,113.515 287.306,113.143 286.675,112.77 C286.204,112.493 285.739,112.191 285.256,111.934 C284.219,111.38 283.181,110.828 282.137,110.287 C284.972,110.109 287.806,109.937 290.639,109.746 C293.789,109.534 296.942,109.314 300.078,108.961 C302.847,108.651 305.609,108.305 308.373,107.963 C313.202,111.073 317.992,114.238 322.874,117.267 C325.198,118.711 327.609,120.01 330.016,121.315 C331.237,121.977 332.465,122.626 333.668,123.322 C334.931,124.05 336.174,124.8 337.408,125.579 C339.764,127.068 342.017,128.717 344.34,130.257 C346.67,131.802 349.085,133.222 351.428,134.749 C353.112,135.846 354.78,136.966 356.455,138.077 C357.272,138.62 358.084,139.165 358.89,139.723 C359.602,140.217 360.293,140.739 360.986,141.261 C361.743,141.859 362.487,142.468 363.209,143.111 C363.847,143.68 364.4,144.322 364.929,144.989 C365.156,145.325 365.38,145.658 365.583,146.01 C365.766,146.324 365.924,146.645 366.082,146.97 C366.199,147.266 366.312,147.563 366.413,147.868 C366.539,148.25 366.651,148.635 366.762,149.02 C366.983,149.793 367.153,150.58 367.394,151.347 C367.659,152.197 367.981,153.019 368.353,153.831 C368.556,154.276 368.779,154.71 369.012,155.139 C368.971,155.135 368.93,155.131 368.889,155.127 C368.518,155.086 368.152,155.076 367.779,155.066 Z M367.101,158.009 C367.099,158.009 367.098,158.009 367.097,158.009 C367.104,158.007 367.112,158.003 367.121,158 C367.114,158.003 367.107,158.006 367.101,158.009 Z M366.988,158.056 C367.02,158.044 367.048,158.028 367.079,158.016 C367.081,158.016 367.083,158.016 367.085,158.015 C367.053,158.029 367.02,158.043 366.988,158.056 Z M336.81,152.224 C335.201,151.994 333.603,151.709 332.021,151.338 C331.873,151.065 331.728,150.791 331.578,150.518 C331.265,149.945 330.991,149.357 330.729,148.76 C330.498,148.177 330.278,147.591 330.075,146.998 C329.869,146.39 329.682,145.772 329.462,145.169 C329.335,144.823 329.203,144.481 329.068,144.14 C329.523,144.607 329.976,145.078 330.436,145.541 C331.283,146.391 332.164,147.207 333.045,148.021 C333.916,148.822 334.806,149.611 335.735,150.343 C336.625,151.042 337.545,151.695 338.504,152.299 C337.938,152.322 337.379,152.285 336.81,152.224 Z M324.532,148.846 C323.01,148.17 321.492,147.482 319.977,146.79 C318.816,146.258 317.666,145.716 316.43,145.377 C315.963,145.249 315.486,145.163 315.005,145.11 C314.75,145.065 314.491,145.051 314.231,145.063 C313.922,145.094 313.614,145.145 313.31,145.216 C313.092,145.259 312.867,145.347 312.653,145.416 C312.428,145.49 312.203,145.549 311.974,145.597 C311.72,145.606 311.476,145.596 311.226,145.574 C310.745,145.464 310.293,145.327 309.838,145.154 C307.235,143.935 304.817,142.35 302.369,140.858 C301.134,140.104 299.875,139.39 298.617,138.676 C297.591,138.097 296.543,137.516 295.401,137.21 C294.549,136.984 293.641,137.039 292.782,137.175 C292.555,137.212 292.328,137.25 292.101,137.285 C291.971,137.296 291.841,137.299 291.71,137.296 C291.53,137.257 291.358,137.208 291.183,137.148 C290.231,136.674 289.353,136.094 288.503,135.461 C285.95,133.338 283.621,130.926 281.436,128.431 C280.883,127.801 280.357,127.15 279.837,126.493 C279.34,125.864 278.853,125.202 278.279,124.635 C277.059,123.423 275.615,122.488 274.249,121.453 C273.402,120.795 272.558,120.13 271.705,119.478 C270.705,118.718 269.667,118.014 268.635,117.298 C266.688,115.952 264.752,114.598 262.707,113.401 C262.173,113.089 261.604,112.83 261.043,112.567 C260.024,112.091 258.98,111.744 257.895,111.496 C258.051,111.498 258.207,111.506 258.363,111.504 C259.29,111.498 260.218,111.492 261.146,111.486 C261.927,111.48 262.708,111.431 263.49,111.402 C264.86,111.351 266.228,111.204 267.597,111.096 C269.128,110.974 270.664,110.858 272.199,110.788 C274.561,110.68 276.921,110.572 279.281,110.446 C279.168,110.936 279.353,111.51 279.823,111.744 C282.437,113.052 285.001,114.465 287.489,116.001 C289.875,117.471 292.249,118.958 294.626,120.442 C296.859,121.839 299.07,123.273 301.27,124.717 C303.595,126.242 305.933,127.751 308.253,129.284 C309.272,129.96 310.284,130.647 311.31,131.314 C312.346,131.988 313.394,132.647 314.446,133.296 C315.525,133.963 316.605,134.623 317.668,135.315 C318.654,135.954 319.613,136.631 320.557,137.332 C321.3,137.928 322.026,138.541 322.742,139.173 C323.064,139.459 323.374,139.764 323.67,140.078 C323.973,140.399 324.254,140.729 324.535,141.069 C324.916,141.603 325.283,142.138 325.599,142.713 C325.917,143.297 326.195,143.895 326.463,144.5 C326.749,145.216 327.019,145.936 327.259,146.67 C327.522,147.477 327.775,148.291 328.077,149.084 C328.239,149.509 328.407,149.939 328.587,150.364 C327.218,149.91 325.87,149.397 324.532,148.846 Z M249.376,110.524 C248.741,110.512 248.105,110.502 247.47,110.491 C247.586,110.466 247.703,110.439 247.82,110.414 C248.825,110.194 249.816,109.949 250.74,109.48 C251.229,109.229 251.45,108.593 251.309,108.083 C251.272,107.951 251.21,107.83 251.134,107.718 C251.496,107.423 251.857,107.129 252.208,106.822 C252.859,106.255 253.498,105.684 254.099,105.064 C254.789,104.356 255.37,103.532 255.961,102.743 C256.736,101.709 257.493,100.665 258.243,99.613 C259.528,97.81 260.78,95.981 262.005,94.137 C262.995,92.643 263.914,91.106 264.934,89.633 C265.057,89.838 265.19,90.037 265.348,90.222 C265.772,90.721 266.298,91.142 266.942,91.319 C267.734,91.535 268.462,91.278 269.171,90.96 C269.429,90.817 269.671,90.65 269.895,90.461 C270.252,90.183 270.577,89.898 270.899,89.579 C271.457,89.029 271.961,88.411 272.432,87.783 C272.822,87.263 273.222,86.751 273.599,86.221 C275.194,83.979 276.8,81.751 278.467,79.561 C279.149,78.683 279.83,77.799 280.543,76.944 C281.413,75.899 282.293,74.856 283.323,73.962 C283.464,73.862 283.603,73.769 283.753,73.684 C283.776,73.691 283.801,73.698 283.825,73.705 C283.947,73.77 284.064,73.84 284.181,73.917 C284.451,74.161 284.689,74.426 284.919,74.708 C285.089,74.936 285.257,75.165 285.425,75.396 C285.773,75.876 286.159,76.457 286.691,76.752 C286.917,76.895 287.156,77.013 287.407,77.105 C287.778,77.207 288.3,77.232 288.671,77.121 C289.022,77.017 289.338,76.881 289.668,76.722 C290.06,76.534 290.421,76.188 290.756,75.916 C291.39,75.398 291.914,74.711 292.426,74.077 C292.76,73.665 293.08,73.245 293.402,72.825 C293.414,72.809 293.426,72.794 293.437,72.779 C293.517,72.698 293.588,72.607 293.647,72.505 C294.042,71.99 294.436,71.477 294.829,70.965 C296.643,68.625 298.476,66.304 300.391,64.046 C302.186,61.933 304.126,59.924 306.265,58.162 C306.551,57.956 306.836,57.767 307.147,57.609 C307.162,57.606 307.177,57.603 307.192,57.6 C307.239,57.599 307.287,57.599 307.334,57.598 C307.411,57.617 307.488,57.641 307.564,57.668 C307.656,57.714 307.746,57.764 307.832,57.819 C307.995,57.966 308.144,58.117 308.29,58.284 C308.73,58.892 309.117,59.534 309.597,60.116 C309.968,60.567 310.502,60.789 311.03,60.987 C311.276,61.029 311.523,61.066 311.77,61.094 C312.256,61.07 312.672,61.015 313.146,60.909 C313.418,60.822 313.684,60.719 313.942,60.603 C314.389,60.393 314.815,60.165 315.241,59.914 C315.356,59.846 315.469,59.773 315.582,59.7 C314.832,60.292 314.101,60.908 313.413,61.573 C312.564,62.396 311.762,63.261 310.962,64.132 C309.479,65.751 308.076,67.448 306.73,69.181 C305.812,70.364 304.901,71.547 303.993,72.736 C303.996,72.733 303.998,72.73 304,72.727 C302.65,74.46 301.281,76.174 299.872,77.858 C299.146,78.727 298.427,79.606 297.676,80.454 C297.221,80.968 296.765,81.48 296.31,81.994 C295.948,82.402 295.563,82.789 295.186,83.183 C293.689,84.755 292.144,86.281 290.648,87.857 C289.078,89.51 287.52,91.174 286.016,92.888 C282.759,96.591 279.506,100.299 276.255,104.01 C275.552,104.814 274.85,105.617 274.146,106.421 C273.957,106.639 273.839,106.873 273.839,107.169 C273.839,107.448 273.951,107.718 274.146,107.915 C274.247,108.015 274.37,108.092 274.503,108.144 C272.743,108.216 270.982,108.299 269.226,108.441 C267.645,108.57 266.065,108.713 264.482,108.821 C263.004,108.921 261.521,108.966 260.039,108.975 C259.082,108.982 258.134,108.984 257.18,108.955 C255.728,108.912 254.278,108.867 252.826,108.806 C252.141,108.778 251.568,109.402 251.568,110.065 C251.568,110.293 251.632,110.499 251.736,110.678 C251.53,110.665 251.323,110.652 251.116,110.638 C250.539,110.597 249.958,110.534 249.376,110.524 Z M283.787,73.673 C283.874,73.675 283.961,73.688 284.048,73.71 C283.96,73.697 283.874,73.685 283.786,73.674 C283.786,73.674 283.785,73.674 283.785,73.673 C283.785,73.673 283.786,73.673 283.787,73.673 Z M290.978,71.296 C290.992,71.277 291.007,71.258 291.021,71.239 C291.001,71.266 290.979,71.293 290.959,71.32 C290.965,71.312 290.971,71.303 290.978,71.296 Z M311.937,58.35 C311.933,58.35 311.928,58.351 311.924,58.352 C311.898,58.348 311.874,58.343 311.851,58.338 C311.879,58.342 311.908,58.346 311.937,58.35 Z M312.14,58.376 C312.066,58.372 311.995,58.364 311.925,58.352 C311.93,58.351 311.935,58.351 311.94,58.35 C312.006,58.359 312.072,58.367 312.14,58.376 Z M319.605,56.496 C321.52,54.828 323.268,52.964 325.068,51.177 C328.797,47.479 332.613,43.842 336.742,40.59 C337.101,40.327 337.456,40.091 337.849,39.88 C337.967,39.839 338.086,39.804 338.208,39.779 C338.253,39.778 338.297,39.777 338.341,39.778 C338.392,39.79 338.443,39.802 338.494,39.815 C338.612,39.876 338.725,39.943 338.837,40.017 C339.076,40.239 339.289,40.474 339.495,40.727 C339.712,41.025 339.921,41.336 340.163,41.613 C340.498,41.997 340.845,42.28 341.293,42.525 C341.52,42.637 341.758,42.719 342.007,42.772 C342.294,42.835 342.584,42.841 342.876,42.79 C343.455,42.749 343.961,42.508 344.478,42.27 C344.733,42.125 344.978,41.966 345.215,41.791 C345.447,41.611 345.68,41.432 345.912,41.252 C346.442,40.792 346.934,40.31 347.411,39.794 C347.968,39.197 348.483,38.563 349.01,37.937 C350.46,36.209 351.894,34.466 353.361,32.753 C354.054,31.945 354.775,31.159 355.51,30.385 C355.134,31.069 354.765,31.756 354.397,32.444 C353.847,33.48 353.266,34.499 352.679,35.515 C352.222,36.306 351.74,37.083 351.298,37.885 C350.732,38.91 350.183,39.944 349.645,40.984 C349.623,41.008 349.601,41.03 349.579,41.053 C348.803,41.901 348.123,42.837 347.456,43.773 C346.875,44.591 346.345,45.451 345.805,46.296 C345.211,47.222 344.636,48.16 344.053,49.09 C342.962,50.825 341.797,52.511 340.612,54.184 C339.975,55.081 339.342,55.983 338.71,56.882 C338.103,57.749 337.517,58.632 336.921,59.508 C335.826,61.117 334.78,62.761 333.738,64.403 C332.643,66.126 331.544,67.849 330.518,69.615 C329.474,71.418 328.44,73.225 327.481,75.074 C327.006,75.986 326.519,76.889 326.066,77.811 C325.534,78.892 325.002,79.971 324.472,81.052 C323.978,82.055 323.521,83.081 323.048,84.092 C322.705,84.824 322.373,85.556 322.049,86.297 C321.547,87.441 321.046,88.583 320.546,89.727 C320.393,90.075 320.263,90.436 320.126,90.793 C319.854,91.493 319.585,92.192 319.316,92.894 C319.176,93.257 319.035,93.62 318.894,93.985 C318.803,94.225 318.737,94.48 318.659,94.727 C318.359,95.688 318.058,96.65 317.758,97.611 C317.685,97.849 317.63,98.094 317.566,98.335 C317.405,98.936 317.244,99.54 317.083,100.141 C316.767,101.33 316.457,102.521 316.157,103.714 C316.091,103.978 316.152,104.246 316.303,104.451 C315.924,104.489 315.544,104.519 315.165,104.558 C312.837,104.801 310.514,105.093 308.192,105.395 C308.189,105.395 308.187,105.395 308.186,105.395 C308.087,105.395 307.988,105.408 307.892,105.434 C307.225,105.522 306.557,105.609 305.889,105.697 C302.821,106.098 299.75,106.435 296.673,106.74 C293.581,107.051 290.476,107.224 287.376,107.42 C284.441,107.603 281.509,107.827 278.57,107.972 C277.51,108.024 276.448,108.066 275.387,108.108 C275.48,108.059 275.568,107.999 275.642,107.915 C276.386,107.065 277.133,106.217 277.878,105.366 C277.895,105.367 277.911,105.371 277.929,105.371 C278.347,105.371 278.697,105.021 278.697,104.603 C278.697,104.551 278.691,104.5 278.682,104.45 C281.054,101.742 283.426,99.033 285.806,96.33 C286.501,95.541 287.189,94.743 287.897,93.963 C288.72,93.057 289.522,92.129 290.365,91.244 C291.964,89.56 293.575,87.889 295.206,86.236 C296.045,85.385 296.872,84.529 297.7,83.666 C298.147,83.199 298.563,82.695 298.993,82.214 C299.334,81.829 299.664,81.435 299.997,81.044 C301.504,79.271 302.964,77.463 304.403,75.635 C305.725,73.958 306.993,72.237 308.293,70.544 C309.625,68.856 310.97,67.18 312.431,65.6 C313.211,64.754 313.998,63.913 314.83,63.116 C315.703,62.28 316.645,61.519 317.567,60.74 C317.914,60.445 317.944,59.869 317.727,59.496 C317.592,59.266 317.369,59.094 317.112,59.023 C317.025,59 316.925,58.986 316.821,58.986 C316.725,58.986 316.628,59 316.537,59.027 C316.733,58.878 316.928,58.728 317.119,58.578 C317.974,57.909 318.789,57.206 319.605,56.496 Z M362.244,23.939 C363.1,23.297 363.961,22.683 364.936,22.236 C365.091,22.179 365.249,22.133 365.409,22.099 C365.507,22.093 365.603,22.093 365.701,22.097 C365.809,22.121 365.915,22.151 366.02,22.186 C366.531,22.44 366.982,22.764 367.443,23.107 C367.639,23.252 367.832,23.401 368.03,23.543 C368.432,23.833 368.862,24.002 369.331,24.153 C369.713,24.275 370.167,24.283 370.563,24.316 C371.133,24.365 371.738,24.208 372.284,24.042 C372.199,24.136 372.114,24.231 372.029,24.326 C371.064,25.406 370.114,26.492 369.162,27.581 C367.311,29.704 365.463,31.829 363.31,33.654 C363.134,33.803 362.958,33.952 362.782,34.101 C362.407,34.382 362.033,34.663 361.657,34.943 C361.198,35.288 360.699,35.585 360.222,35.903 C359.832,36.165 359.429,36.403 359.028,36.646 C358.597,36.907 358.172,37.188 357.729,37.429 C357.175,37.731 356.62,38.034 356.065,38.336 C355.69,38.54 355.319,38.762 354.934,38.946 C354.453,39.174 353.974,39.401 353.493,39.628 C353.708,39.277 353.689,38.824 353.407,38.502 C353.967,37.554 354.53,36.611 355.083,35.657 C355.658,34.666 356.19,33.651 356.727,32.637 C357.259,31.626 357.817,30.627 358.376,29.63 C359.3,27.982 360.247,26.34 361.285,24.761 C361.603,24.485 361.921,24.209 362.244,23.939 Z M378.59,19.14 C379.257,18.482 379.941,17.845 380.623,17.205 C383.113,14.853 385.759,12.672 388.445,10.551 C390.058,9.312 391.667,8.038 393.515,7.168 C393.869,7.034 394.211,6.931 394.588,6.854 C394.787,6.84 394.987,6.839 395.187,6.854 C395.551,6.917 395.894,7.001 396.25,7.116 C396.621,7.292 396.962,7.496 397.302,7.731 C397.196,7.787 397.096,7.848 396.988,7.902 C396.458,8.167 395.91,8.391 395.374,8.638 C394.823,8.889 394.28,9.16 393.74,9.433 C392.651,9.984 391.568,10.588 390.549,11.26 C389.464,11.974 388.385,12.702 387.369,13.512 C386.837,13.936 386.317,14.364 385.808,14.815 C385.313,15.249 384.841,15.704 384.361,16.157 C383.454,17.017 382.603,17.933 381.755,18.851 C380.927,19.74 380.148,20.674 379.371,21.608 C378.548,22.603 377.731,23.606 376.944,24.632 C376.192,25.615 375.449,26.606 374.761,27.636 C374.412,28.154 374.049,28.664 373.719,29.194 C373.325,29.824 372.934,30.452 372.542,31.082 C372.195,31.637 371.881,32.214 371.551,32.779 C371.263,33.275 370.994,33.778 370.725,34.284 C370.155,35.35 369.603,36.425 369.103,37.527 C368.8,38.199 368.472,38.866 368.198,39.553 C367.951,40.172 367.678,40.785 367.458,41.413 C367.011,42.69 366.579,43.966 366.163,45.253 C365.781,46.438 365.478,47.648 365.17,48.853 C365.017,49.446 364.896,50.048 364.766,50.647 C364.631,51.261 364.546,51.881 364.452,52.503 C364.066,55.058 364.123,57.667 364.091,60.242 C364.061,62.728 364.05,65.224 363.729,67.694 C363.725,67.735 363.719,67.775 363.714,67.816 C363.419,69.65 363.154,71.526 362.469,73.262 C362.049,74.189 361.531,75.052 360.997,75.916 C360.873,76.116 360.726,76.308 360.592,76.501 C360.476,76.667 360.365,76.838 360.245,76.999 C359.969,77.37 359.692,77.741 359.415,78.111 C357.875,80.092 356.311,82.055 354.759,84.029 C354.019,84.97 353.276,85.917 352.569,86.885 C352.094,87.538 351.618,88.191 351.142,88.843 C350.823,89.281 350.533,89.742 350.233,90.193 C349.971,90.589 349.708,90.983 349.444,91.378 C349.216,91.723 349.028,92.104 348.822,92.463 C348.58,92.885 348.335,93.309 348.093,93.734 C347.898,94.068 347.74,94.429 347.564,94.774 C347.175,95.54 346.775,96.301 346.427,97.088 C345.886,98.314 345.344,99.535 344.834,100.773 C344.829,100.784 344.83,100.797 344.826,100.807 C343.667,101.047 342.507,101.288 341.346,101.518 C341.198,101.547 341.05,101.573 340.902,101.602 C340.457,101.278 340.013,100.953 339.569,100.626 C339.44,100.532 339.263,100.492 339.091,100.492 C338.993,100.492 338.897,100.505 338.813,100.528 C338.568,100.595 338.356,100.758 338.228,100.978 C338.095,101.205 338.059,101.48 338.13,101.733 C338.167,101.873 338.231,101.984 338.313,102.081 C337.968,102.142 337.621,102.204 337.275,102.266 C336.134,102.47 334.981,102.618 333.835,102.789 C332.393,102.962 330.95,103.138 329.503,103.278 C327.752,103.445 326,103.6 324.246,103.747 C322.08,103.927 319.915,104.114 317.751,104.315 C317.772,104.268 317.792,104.22 317.805,104.169 C318.176,102.7 318.563,101.239 318.953,99.776 C319.1,99.232 319.245,98.687 319.39,98.141 C319.479,97.806 319.598,97.476 319.701,97.146 C319.922,96.446 320.145,95.744 320.364,95.043 C320.448,94.776 320.529,94.513 320.632,94.252 C321.103,93.04 321.576,91.829 322.049,90.62 C322.062,90.585 322.076,90.55 322.089,90.516 C322.869,88.767 323.618,87.005 324.438,85.275 C324.963,84.175 325.485,83.074 326.009,81.975 C326.494,80.958 327.02,79.956 327.526,78.949 C328.43,77.148 329.4,75.385 330.388,73.629 C331.424,71.787 332.524,69.984 333.648,68.196 C334.678,66.558 335.732,64.933 336.803,63.322 C337.972,61.564 339.134,59.8 340.361,58.083 C341.648,56.28 342.949,54.486 344.206,52.662 C345.38,50.96 346.453,49.188 347.54,47.427 C348.003,46.675 348.478,45.931 348.957,45.191 C349.408,44.493 349.895,43.824 350.388,43.157 C350.456,43.073 350.528,42.991 350.597,42.908 C350.789,43.161 351.059,43.352 351.367,43.437 C351.495,43.455 351.626,43.471 351.755,43.49 C352.018,43.487 352.265,43.423 352.49,43.29 C353.408,42.886 354.311,42.46 355.217,42.031 C355.766,41.771 356.318,41.522 356.851,41.232 C357.634,40.804 358.417,40.376 359.202,39.948 C359.847,39.594 360.464,39.181 361.093,38.799 C361.702,38.428 362.287,38.014 362.881,37.616 C363.423,37.249 363.934,36.833 364.455,36.44 C365.087,35.963 365.686,35.428 366.258,34.882 C366.833,34.329 367.39,33.766 367.944,33.191 C368.711,32.394 369.423,31.539 370.135,30.693 C370.871,29.812 371.599,28.925 372.331,28.04 C373.881,26.166 375.492,24.323 376.85,22.302 C377.129,21.885 377.038,21.332 376.738,20.957 C377.365,20.361 377.976,19.747 378.59,19.14 Z M404.358,11.226 C405.271,11.185 406.182,10.936 407.046,10.663 C407.764,10.437 408.474,10.127 409.156,9.808 C409.966,9.431 410.771,9.05 411.573,8.652 C412.93,7.977 414.285,7.3 415.644,6.629 C416.972,5.972 418.319,5.369 419.679,4.781 C420.231,4.552 420.783,4.324 421.339,4.105 C422.166,3.775 423.014,3.445 423.886,3.259 C423.941,3.259 423.998,3.258 424.054,3.257 C424.068,3.26 424.083,3.262 424.098,3.265 C424.15,3.292 424.201,3.323 424.252,3.355 C424.44,3.531 424.608,3.726 424.755,3.942 C424.682,3.845 424.608,3.75 424.535,3.654 C425.131,4.561 425.562,5.549 426.027,6.525 C426.225,6.94 426.476,7.324 426.77,7.673 C424.798,9.04 423.076,10.744 421.226,12.272 C419.164,13.972 417.071,15.636 415.079,17.421 C413.023,19.26 411.011,21.145 408.925,22.948 C407.909,23.826 406.887,24.697 405.874,25.578 C404.858,26.465 403.881,27.393 402.902,28.321 C401.016,30.111 399.19,31.975 397.37,33.831 C395.438,35.797 393.514,37.769 391.603,39.755 C389.755,41.678 387.914,43.607 386.029,45.494 C384.024,47.498 381.971,49.448 379.913,51.395 C376.022,55.078 372.145,58.778 368.371,62.579 C367.764,63.19 367.168,63.809 366.577,64.434 C366.611,63.718 366.628,63 366.642,62.285 C366.669,60.958 366.691,59.628 366.707,58.3 C366.716,57.511 366.718,56.72 366.754,55.933 C366.798,55.063 366.859,54.198 366.932,53.329 C367.006,52.835 367.081,52.341 367.156,51.848 C367.192,51.608 367.26,51.369 367.311,51.133 C367.395,50.753 367.476,50.374 367.56,49.995 C367.798,48.896 368.12,47.811 368.431,46.732 C368.722,45.714 369.042,44.705 369.393,43.705 C369.587,43.147 369.764,42.578 369.982,42.027 C370.201,41.474 370.42,40.921 370.638,40.368 C370.91,39.763 371.183,39.16 371.457,38.554 C371.722,37.969 372.021,37.398 372.305,36.821 C372.823,35.766 373.396,34.737 373.987,33.721 C374.283,33.218 374.568,32.708 374.879,32.212 C375.254,31.611 375.631,31.009 376.007,30.407 C376.369,29.826 376.775,29.267 377.156,28.7 C377.512,28.174 377.895,27.667 378.264,27.153 C378.625,26.652 379.009,26.168 379.388,25.681 C380.922,23.795 382.469,21.924 384.127,20.144 C384.918,19.295 385.738,18.473 386.582,17.676 C387.047,17.237 387.519,16.809 387.997,16.385 C388.397,16.033 388.812,15.704 389.228,15.373 C390.132,14.704 391.036,14.033 391.988,13.432 C393.053,12.761 394.138,12.133 395.253,11.55 C396.345,10.981 397.47,10.479 398.557,9.898 C398.79,9.774 399.02,9.629 399.246,9.474 C399.865,10.029 400.568,10.491 401.362,10.755 C402.337,11.077 403.33,11.271 404.358,11.226 Z M424.019,3.225 C424.017,3.225 424.014,3.226 424.011,3.226 C423.93,3.193 423.85,3.158 423.769,3.124 C423.854,3.152 423.937,3.186 424.019,3.225 Z M424.028,3.23 C424.042,3.236 424.055,3.242 424.067,3.249 C424.066,3.249 424.066,3.249 424.065,3.249 C424.051,3.243 424.036,3.237 424.022,3.231 C424.024,3.23 424.026,3.23 424.028,3.23 Z M429.04,5.855 C429.041,5.856 429.042,5.858 429.044,5.859 C429.022,5.843 429.001,5.826 428.98,5.809 C429,5.824 429.02,5.84 429.04,5.855 Z M429.097,5.898 C429.079,5.886 429.062,5.874 429.046,5.861 C429.045,5.86 429.044,5.858 429.043,5.857 C429.061,5.87 429.079,5.884 429.097,5.898 Z M430.575,9.001 C431.98,8.846 433.277,8.277 434.585,7.778 C435.451,7.445 436.313,7.098 437.185,6.776 C438.214,6.396 439.248,6.031 440.287,5.677 C439.856,6.436 439.48,7.223 439.138,8.027 C438.125,10.404 437.684,12.967 436.81,15.391 C436.627,15.816 436.438,16.238 436.212,16.645 C435.926,17.156 435.633,17.662 435.314,18.156 C434.664,19.156 433.976,20.122 433.262,21.076 C431.693,23.093 430.102,25.091 428.514,27.092 C426.872,29.157 425.248,31.237 423.623,33.316 C422.047,35.335 420.439,37.344 418.719,39.24 C416.92,41.22 415.033,43.109 413.078,44.931 C411.163,46.72 409.195,48.466 407.436,50.407 C406.555,51.38 405.663,52.344 404.839,53.366 C403.993,54.416 403.157,55.47 402.318,56.527 C400.652,58.627 398.995,60.732 397.279,62.794 C395.6,64.817 393.936,66.856 392.351,68.956 C391.496,70.086 390.647,71.216 389.813,72.36 C388.974,73.51 388.151,74.674 387.332,75.841 C386.665,76.789 386.009,77.754 385.376,78.729 C384.681,79.797 383.976,80.858 383.296,81.937 C382.486,83.225 381.656,84.502 380.871,85.805 C379.815,87.557 378.753,89.306 377.715,91.069 C377.352,91.688 377.57,92.51 378.187,92.871 C378.81,93.236 379.625,93.016 379.99,92.398 C380.921,90.82 381.871,89.256 382.819,87.687 C383.461,86.623 384.132,85.576 384.799,84.527 C386.253,82.228 387.76,79.969 389.298,77.725 C391.005,75.239 392.825,72.832 394.657,70.436 C395.511,69.35 396.37,68.27 397.245,67.2 C398.079,66.179 398.936,65.174 399.786,64.164 C401.415,62.231 402.978,60.242 404.55,58.264 C406.197,56.191 407.843,54.112 409.679,52.201 C410.647,51.194 411.632,50.207 412.651,49.249 C413.608,48.349 414.575,47.458 415.533,46.559 C416.463,45.684 417.371,44.782 418.264,43.867 C419.167,42.941 420.064,42.003 420.917,41.026 C422.718,38.963 424.416,36.815 426.08,34.639 C426.806,33.69 427.53,32.741 428.252,31.79 C430.199,29.284 432.173,26.799 434.109,24.286 C434.04,24.376 433.971,24.467 433.901,24.557 C434.15,24.235 434.396,23.912 434.645,23.593 C434.576,23.682 434.507,23.772 434.437,23.862 C434.568,23.692 434.698,23.525 434.827,23.356 C434.758,23.445 434.688,23.535 434.619,23.625 C435.474,22.522 436.3,21.402 437.072,20.242 C437.4,19.75 437.718,19.244 438.017,18.729 C438.074,18.719 438.134,18.713 438.187,18.694 C440.833,17.743 443.478,16.789 446.125,15.839 C447.315,15.41 448.533,15.01 449.673,14.456 C450.729,13.942 451.749,13.337 452.686,12.625 C453.074,12.329 453.468,12.035 453.814,11.689 C454.116,11.387 454.41,11.077 454.704,10.767 C454.985,10.467 455.267,10.161 455.564,9.876 C455.728,9.723 455.891,9.57 456.054,9.417 C456.323,9.166 456.544,8.881 456.743,8.578 C456.815,8.606 456.889,8.64 456.96,8.667 C457.522,8.879 458.09,9.058 458.671,9.213 C459.235,9.364 459.814,9.464 460.386,9.578 C460.901,9.682 461.442,9.717 461.964,9.78 C462.031,9.788 462.098,9.79 462.164,9.797 C461.894,9.996 461.621,10.193 461.354,10.398 C460.381,11.158 459.46,11.987 458.708,12.973 C457.979,13.927 457.423,14.994 456.932,16.085 C456.067,18.005 455.476,20.031 454.684,21.98 C454.481,22.406 454.271,22.822 454.048,23.239 C453.827,23.65 453.551,24.029 453.281,24.408 C452.972,24.782 452.657,25.143 452.327,25.503 C451.956,25.907 451.522,26.26 451.104,26.616 C448.872,28.272 446.423,29.602 444.145,31.195 C442.918,32.053 441.719,32.958 440.559,33.908 C439.451,34.816 438.342,35.74 437.347,36.772 C436.781,37.355 436.23,37.945 435.688,38.55 C435.192,39.107 434.72,39.68 434.238,40.249 C433.343,41.313 432.491,42.412 431.637,43.51 C430.682,44.735 429.807,46.02 428.916,47.29 C428.033,48.549 427.207,49.848 426.369,51.133 C423.306,55.829 420.371,60.603 417.665,65.516 C416.158,68.255 414.622,70.975 413.061,73.681 C411.61,76.194 410.191,78.724 408.78,81.257 C408.264,82.181 407.785,83.127 407.289,84.061 C406.676,85.213 406.072,86.368 405.471,87.526 C402.478,88.135 399.483,88.734 396.492,89.349 C392.646,90.141 388.816,91.006 384.991,91.887 C384.841,91.81 384.691,91.731 384.541,91.654 C384.352,91.557 384.147,91.508 383.947,91.508 C383.559,91.508 383.186,91.693 382.967,92.066 C382.91,92.163 382.876,92.27 382.851,92.379 C381.252,92.75 379.653,93.121 378.055,93.491 C375.053,94.184 372.063,94.929 369.067,95.643 C366.082,96.354 363.087,97.011 360.083,97.639 C356.924,98.302 353.765,98.956 350.603,99.609 C349.54,99.828 348.476,100.052 347.412,100.274 C347.617,99.806 347.828,99.341 348.035,98.874 C348.237,98.42 348.421,97.955 348.649,97.512 C349.227,96.388 349.781,95.255 350.422,94.166 C350.64,93.791 350.86,93.417 351.08,93.042 C351.183,92.867 351.276,92.681 351.391,92.514 C351.798,91.914 352.206,91.313 352.613,90.713 C353.266,89.757 353.973,88.841 354.665,87.913 C356.142,86.031 357.642,84.171 359.138,82.305 C359.992,81.241 360.851,80.18 361.674,79.091 C362.441,78.078 363.22,77.056 363.838,75.941 C364.021,75.61 364.211,75.282 364.383,74.944 C364.803,74.114 365.135,73.24 365.378,72.345 C365.603,71.515 365.753,70.665 365.922,69.823 C366.04,69.236 366.135,68.645 366.219,68.053 C367.176,66.998 368.13,65.94 369.14,64.938 C370.139,63.947 371.137,62.956 372.147,61.977 C374.01,60.173 375.89,58.384 377.786,56.616 C381.854,52.823 385.988,49.099 389.916,45.159 C391.797,43.275 393.642,41.356 395.52,39.467 C397.421,37.557 399.317,35.64 401.236,33.743 C403.234,31.769 405.237,29.805 407.33,27.929 C409.24,26.219 411.243,24.615 413.14,22.888 C415.13,21.075 417.098,19.23 419.168,17.507 C421.258,15.765 423.383,14.07 425.404,12.249 C426.232,11.503 427.062,10.767 427.932,10.071 C428.318,9.781 428.708,9.497 429.105,9.225 C429.186,9.169 429.259,9.109 429.327,9.046 C429.41,9.054 429.493,9.067 429.576,9.074 C429.912,9.076 430.245,9.052 430.575,9.001 Z M448.915,3.245 C449.324,3.21 449.718,3.197 450.131,3.211 C450.381,3.257 450.619,3.315 450.866,3.395 C451.086,3.506 451.291,3.626 451.499,3.764 C451.95,4.162 452.333,4.604 452.708,5.075 C452.976,5.438 453.243,5.803 453.525,6.154 C453.769,6.456 454.017,6.74 454.288,7.017 C454.512,7.243 454.771,7.444 455.041,7.63 C454.899,7.709 454.757,7.785 454.616,7.869 C454.478,7.948 454.35,8.04 454.219,8.132 C453.902,8.35 453.601,8.609 453.311,8.862 C452.844,9.268 452.384,9.682 451.903,10.073 C450.768,10.871 449.551,11.537 448.289,12.114 C446.761,12.706 445.208,13.237 443.665,13.793 C442.282,14.29 440.898,14.789 439.515,15.286 C439.556,15.158 439.601,15.032 439.638,14.903 C439.805,14.322 439.939,13.733 440.08,13.143 C440.38,11.889 440.678,10.625 441.11,9.407 C441.224,9.089 441.344,8.774 441.467,8.461 C442.081,7.104 442.802,5.813 443.691,4.616 C443.706,4.598 443.72,4.58 443.734,4.562 C445.436,4.034 447.159,3.531 448.915,3.245 Z M470.882,10.007 C472.836,9.999 474.807,9.952 476.754,10.16 C477.114,10.224 477.45,10.303 477.796,10.415 C478.063,10.555 478.308,10.705 478.553,10.877 C478.77,11.074 478.968,11.274 479.159,11.492 C479.311,11.729 479.446,11.966 479.571,12.217 C479.805,12.879 479.952,13.548 480.076,14.24 C480.161,14.946 480.233,15.653 480.344,16.355 C480.369,16.452 480.395,16.552 480.42,16.651 C480.518,16.903 480.621,17.154 480.729,17.403 C480.788,17.49 480.851,17.571 480.911,17.654 C480.708,17.71 480.505,17.764 480.304,17.822 C479.686,17.999 479.072,18.201 478.461,18.397 C477.134,18.821 475.887,19.44 474.613,19.996 C473.856,20.31 473.098,20.608 472.316,20.857 C471.542,21.103 470.746,21.237 469.944,21.355 C468.563,21.535 467.187,21.733 465.812,21.964 C464.389,22.202 462.962,22.42 461.534,22.625 C460.567,22.748 459.603,22.865 458.635,22.971 C458.021,23.039 457.404,23.087 456.787,23.126 C457.213,22.128 457.56,21.103 457.895,20.07 C458.221,19.065 458.568,18.068 458.936,17.077 C459.351,16.136 459.825,15.233 460.43,14.397 C461.099,13.576 461.899,12.894 462.728,12.242 C463.05,12.002 463.373,11.765 463.704,11.54 C464.071,11.291 464.455,11.065 464.828,10.826 C465.247,10.56 465.655,10.279 466.062,9.994 C467.667,10.036 469.275,10.012 470.882,10.007 Z M484.294,15.553 C484.291,15.552 484.288,15.551 484.286,15.55 C484.274,15.54 484.263,15.531 484.252,15.52 C484.266,15.531 484.279,15.542 484.294,15.553 Z M484.306,15.562 C484.367,15.61 484.43,15.658 484.492,15.706 C484.423,15.659 484.357,15.61 484.294,15.557 C484.298,15.559 484.302,15.56 484.306,15.562 Z M486.186,19.944 C486.882,19.987 487.579,19.978 488.273,20.027 C488.311,20.034 488.348,20.048 488.386,20.056 C488.298,20.079 488.209,20.099 488.122,20.123 C487.09,20.403 486.048,20.635 485.024,20.939 C484.318,21.149 483.615,21.439 482.96,21.771 C482.371,22.069 481.83,22.469 481.353,22.921 C480.929,23.321 480.578,23.8 480.244,24.278 C479.643,25.136 479.086,26.023 478.588,26.947 C478.17,27.726 477.754,28.505 477.295,29.26 C476.836,30.012 476.353,30.747 475.832,31.461 C475.624,31.718 475.407,31.966 475.185,32.209 C475.091,32.19 474.996,32.172 474.902,32.152 C474.56,32.081 474.231,32.099 473.923,32.281 C473.638,32.446 473.426,32.723 473.338,33.039 C473.272,33.278 473.285,33.538 473.363,33.777 C472.667,34.261 471.959,34.724 471.259,35.204 C470.745,35.554 470.225,35.906 469.737,36.295 C469.283,36.66 468.838,37.033 468.399,37.419 C467.994,37.776 467.614,38.163 467.233,38.542 C466.858,38.92 466.482,39.299 466.124,39.688 C465.345,40.531 464.588,41.383 463.868,42.276 C462.392,44.11 461.059,46.057 459.706,47.982 C458.478,49.734 457.279,51.504 456.078,53.276 C453.482,57.11 450.853,60.921 448.247,64.751 C445.688,68.51 443.194,72.311 440.721,76.126 C440.197,76.933 439.675,77.739 439.152,78.546 C437.06,79.267 434.966,79.987 432.86,80.67 C429.869,81.643 426.826,82.452 423.792,83.286 C420.962,84.066 418.125,84.839 415.258,85.47 C413.297,85.903 411.333,86.316 409.368,86.724 C410.457,84.655 411.559,82.592 412.695,80.549 C414.155,77.923 415.652,75.319 417.147,72.712 C418.521,70.312 419.816,67.867 421.167,65.452 C422.569,62.944 424.012,60.46 425.53,58.021 C427.042,55.596 428.539,53.157 430.103,50.765 C430.94,49.483 431.787,48.206 432.647,46.938 C433.376,45.862 434.157,44.827 434.939,43.791 C436.283,42.104 437.627,40.429 439.114,38.866 C440.568,37.335 442.215,36.006 443.866,34.697 C445.219,33.683 446.593,32.705 448.018,31.794 C448.811,31.288 449.603,30.782 450.388,30.266 C451.183,29.744 451.945,29.183 452.696,28.603 C453.632,27.859 454.455,26.976 455.16,26.007 C456.913,25.92 458.663,25.79 460.403,25.561 C460.341,25.57 460.278,25.578 460.215,25.588 C460.29,25.577 460.364,25.567 460.438,25.557 C460.418,25.56 460.397,25.562 460.376,25.565 C461.796,25.376 463.211,25.17 464.624,24.931 C465.726,24.743 466.816,24.487 467.907,24.254 C469.02,24.015 470.139,23.811 471.25,23.569 C472.397,23.316 473.503,22.833 474.558,22.325 C475.287,21.972 476.016,21.613 476.733,21.234 C477.43,20.865 478.128,20.507 478.851,20.189 C479.636,19.868 480.425,19.54 481.238,19.294 C481.589,19.189 481.931,19.071 482.27,18.945 C482.3,18.964 482.33,18.983 482.359,19.002 C482.657,19.195 483.079,19.365 483.405,19.475 C484.299,19.778 485.247,19.889 486.186,19.944 Z M495.093,28.939 C495.773,29.531 496.478,30.097 497.191,30.651 C496.986,30.594 496.78,30.558 496.567,30.558 C496.524,30.558 496.482,30.559 496.439,30.562 C496.192,30.574 495.943,30.621 495.699,30.663 C495.448,30.706 495.197,30.755 494.946,30.8 C494.513,30.878 494.075,30.939 493.64,30.999 C492.684,31.127 491.726,31.236 490.77,31.369 C489.885,31.491 489.002,31.665 488.129,31.85 C487.238,32.038 486.349,32.234 485.46,32.44 C484.649,32.628 483.838,32.777 483.015,32.897 C482.377,32.955 481.734,33.023 481.094,33.011 C480.979,33.011 480.863,33.011 480.749,33.011 C480.496,33.011 480.241,33.011 479.99,32.988 C479.608,32.956 479.228,32.924 478.848,32.89 C478.401,32.824 477.952,32.764 477.509,32.677 C477.868,32.188 478.203,31.679 478.527,31.166 C479.09,30.273 479.585,29.337 480.072,28.403 C480.685,27.235 481.336,26.097 482.12,25.039 C482.382,24.713 482.668,24.416 482.989,24.148 C483.409,23.848 483.857,23.607 484.327,23.398 C484.935,23.155 485.56,22.965 486.19,22.784 C486.803,22.609 487.431,22.491 488.044,22.326 C488.69,22.153 489.331,21.965 489.968,21.757 C489.984,21.751 490.001,21.744 490.018,21.738 C490.031,21.768 490.047,21.796 490.061,21.826 C490.325,22.501 490.593,23.174 490.879,23.841 C491.167,24.514 491.581,25.124 491.999,25.721 C492.852,26.947 493.973,27.965 495.093,28.939 Z M498.953,31.986 C500.194,32.914 501.569,33.654 502.923,34.404 C503.123,34.515 503.327,34.619 503.529,34.726 C502.674,35.295 501.806,35.847 500.948,36.413 C500.451,36.742 499.951,37.068 499.441,37.378 C498.971,37.666 498.495,37.943 498.032,38.243 C496.998,38.914 496.009,39.646 495.02,40.382 C493.992,41.147 492.995,41.95 492.03,42.79 C491.117,43.588 490.24,44.424 489.375,45.274 C487.642,46.985 486.013,48.79 484.405,50.619 C480.972,54.534 477.686,58.57 474.43,62.633 C474.162,62.963 473.897,63.296 473.632,63.626 C473.422,63.887 473.277,64.132 473.277,64.48 C473.277,64.626 473.307,64.767 473.357,64.902 C471.276,65.745 469.192,66.578 467.133,67.472 C464.918,68.431 462.713,69.41 460.497,70.365 C460.396,70.394 460.301,70.434 460.212,70.484 C456.899,71.836 453.588,73.183 450.291,74.571 C450.308,74.564 450.323,74.557 450.34,74.55 C448.983,75.097 447.625,75.643 446.24,76.12 C445.144,76.498 444.043,76.871 442.942,77.245 C443.698,76.081 444.451,74.915 445.213,73.755 C446.573,71.683 447.947,69.623 449.33,67.565 C451.833,63.836 454.394,60.146 456.895,56.414 C458.128,54.573 459.348,52.719 460.583,50.88 C461.837,49.012 463.128,47.171 464.432,45.337 C464.74,44.903 465.061,44.477 465.378,44.049 C465.786,43.529 466.2,43.015 466.626,42.507 C467.093,41.952 467.582,41.413 468.075,40.881 C468.579,40.337 469.091,39.802 469.623,39.284 C470.129,38.79 470.659,38.331 471.204,37.883 C472.043,37.266 472.906,36.687 473.773,36.109 C474.355,35.721 474.928,35.305 475.469,34.855 C475.934,34.948 476.397,35.043 476.862,35.135 C477.117,35.187 477.376,35.217 477.633,35.258 C478.028,35.317 478.43,35.397 478.832,35.431 C479.218,35.462 479.603,35.494 479.99,35.527 C480.333,35.556 480.682,35.546 481.024,35.554 C481.664,35.566 482.307,35.515 482.947,35.468 C484.283,35.37 485.599,35.093 486.907,34.82 C488.184,34.552 489.461,34.298 490.743,34.065 C491.785,33.878 492.834,33.726 493.874,33.535 C494.371,33.445 494.869,33.347 495.362,33.235 C495.585,33.186 495.805,33.129 496.023,33.066 C496.29,32.991 496.551,32.892 496.821,32.828 C496.829,32.828 496.838,32.829 496.846,32.829 C497.116,32.863 497.355,32.852 497.607,32.705 C497.854,32.562 498.038,32.322 498.115,32.046 C498.188,31.781 498.154,31.528 498.05,31.308 C498.351,31.535 498.651,31.761 498.953,31.986 Z M495.944,88.609 C495.969,88.739 495.993,88.869 496.019,88.999 C496.153,89.707 496.299,90.412 496.413,91.125 C496.463,91.638 496.484,92.134 496.45,92.649 C496.353,93.147 496.211,93.615 496.035,94.092 C495.921,94.334 495.801,94.568 495.673,94.797 C494.065,94.953 492.453,95.063 490.85,95.255 C488.918,95.486 486.999,95.807 485.073,96.083 C483.565,96.278 482.053,96.435 480.537,96.562 C479.018,96.689 477.497,96.815 475.974,96.886 C474.454,96.958 472.925,96.941 471.405,96.868 C470.988,96.848 470.572,96.817 470.156,96.778 C470.736,96.523 471.315,96.265 471.895,96.008 C472.172,95.885 472.386,95.549 472.463,95.269 C472.551,94.951 472.504,94.603 472.339,94.317 C472.176,94.042 471.908,93.836 471.601,93.75 C471.495,93.721 471.395,93.708 471.298,93.708 C471.075,93.708 470.868,93.777 470.648,93.875 C469.915,94.202 469.183,94.524 468.445,94.845 C467.338,95.299 466.214,95.686 465.075,96.061 C464.455,96.264 463.837,96.472 463.213,96.664 C462.405,96.911 461.627,97.188 460.853,97.533 C460.656,97.649 460.499,97.806 460.383,98.004 C460.209,98.301 460.161,98.659 460.246,98.99 C458.773,98.665 457.289,98.385 455.808,98.112 C454.694,97.908 453.579,97.715 452.47,97.492 C451.876,97.372 451.283,97.256 450.695,97.115 C450.063,96.962 449.437,96.797 448.811,96.619 C447.781,96.33 446.747,96.022 445.734,95.679 C445.171,95.491 444.61,95.304 444.048,95.116 C443.513,94.938 442.988,94.712 442.462,94.506 C441.936,94.275 441.402,94.053 440.889,93.801 C440.216,93.47 439.545,93.138 438.874,92.806 C437.795,92.274 436.73,91.709 435.668,91.142 C434.436,90.483 433.198,89.835 431.98,89.143 C430.784,88.464 429.583,87.789 428.394,87.094 C427.448,86.542 426.501,85.989 425.555,85.436 C426.83,85.091 428.104,84.743 429.38,84.396 C432.339,83.591 435.247,82.628 438.154,81.657 C440.565,80.854 442.972,80.04 445.388,79.253 C446.652,78.841 447.906,78.403 449.157,77.952 C450.366,77.517 451.551,77.006 452.737,76.516 C454.096,75.952 455.46,75.403 456.824,74.857 C458.543,75.038 460.261,75.233 461.978,75.431 C464.093,75.726 466.214,75.999 468.324,76.329 C470.563,76.682 472.795,77.078 475.033,77.446 C476.989,77.767 478.947,78.069 480.893,78.44 C481.79,78.609 482.699,78.791 483.576,79.039 C484.052,79.174 484.52,79.317 484.989,79.47 C485.366,79.594 485.733,79.751 486.1,79.906 C486.534,80.103 486.971,80.298 487.39,80.528 C487.838,80.775 488.261,81.045 488.68,81.339 C488.94,81.544 489.199,81.752 489.441,81.976 C489.762,82.272 490.065,82.58 490.369,82.889 C490.936,83.471 491.501,84.048 492.095,84.605 C492.386,84.878 492.684,85.145 492.974,85.423 C493.273,85.71 493.549,86.022 493.817,86.336 C494.421,87.042 495.013,87.753 495.667,88.414 C495.749,88.497 495.845,88.559 495.944,88.609 Z M511.953,67.156 C511.9,67.26 511.86,67.366 511.825,67.474 C510.843,67.627 509.871,67.837 508.909,68.116 C508.157,68.337 507.425,68.612 506.686,68.881 C505.903,69.169 505.116,69.45 504.327,69.725 C502.771,70.27 501.188,70.743 499.623,71.257 C498.03,71.781 496.447,72.338 494.853,72.856 C493.376,73.335 491.877,73.747 490.383,74.165 C488.486,74.698 486.596,75.242 484.705,75.788 C484.165,75.945 483.769,76.374 483.624,76.885 C483.229,76.785 482.831,76.696 482.436,76.607 C481.865,76.476 481.288,76.368 480.711,76.258 C479.661,76.054 478.603,75.891 477.546,75.721 C476.398,75.538 475.25,75.35 474.102,75.156 C471.926,74.79 469.75,74.437 467.565,74.121 C465.343,73.798 463.119,73.483 460.889,73.228 C461.028,73.172 461.169,73.117 461.309,73.059 C461.538,72.986 461.759,72.87 461.978,72.778 C462.38,72.609 462.783,72.44 463.187,72.268 C463.299,72.221 463.411,72.174 463.525,72.126 C465.155,71.439 466.77,70.71 468.394,70.005 C470.369,69.173 472.357,68.367 474.342,67.555 C476.465,66.687 478.586,65.812 480.725,64.982 C482.923,64.13 485.126,63.287 487.31,62.404 C488.644,61.865 489.964,61.288 491.284,60.712 C493.779,61.109 496.271,61.526 498.742,62.056 C500.078,62.341 501.422,62.621 502.731,63.008 C503.382,63.202 504.03,63.392 504.668,63.62 C505.319,63.853 505.966,64.097 506.614,64.336 C508.119,64.891 509.71,65.193 511.29,65.449 C511.91,65.55 512.535,65.616 513.161,65.673 C512.673,66.094 512.244,66.582 511.953,67.156 Z M512.982,38.454 C512.824,38.544 512.664,38.631 512.508,38.725 C511.942,39.063 511.395,39.428 510.829,39.771 C510.185,40.16 509.562,40.585 508.998,41.082 C507.999,41.965 507.165,43.017 506.324,44.047 C505.413,45.165 504.51,46.288 503.608,47.414 C502.835,48.381 502.068,49.351 501.3,50.322 C501.222,50.42 501.146,50.52 501.069,50.618 C500.936,50.848 500.869,51.095 500.869,51.36 C500.869,51.748 501.024,52.123 501.3,52.398 C501.573,52.671 501.95,52.828 502.338,52.828 C502.686,52.828 503.147,52.686 503.376,52.398 C504.819,50.577 506.266,48.758 507.713,46.941 C508.914,45.434 510.094,43.871 511.587,42.64 C511.989,42.348 512.402,42.068 512.808,41.778 C513.293,41.429 513.776,41.08 514.273,40.752 C514.704,40.468 515.13,40.174 515.581,39.926 C515.994,39.697 516.422,39.494 516.85,39.291 C518.247,39.571 519.647,39.844 521.059,40.061 C522.978,40.357 524.9,40.606 526.819,40.889 C528.944,41.203 531.069,41.499 533.2,41.766 C534.954,41.983 536.717,42.131 538.479,42.249 C537.963,42.562 537.451,42.88 536.94,43.2 C535.992,43.422 535.044,43.646 534.096,43.869 C531.181,44.55 528.273,45.258 525.375,46.006 C523.934,46.38 522.502,46.783 521.066,47.181 C519.618,47.583 518.164,47.964 516.715,48.358 C513.711,49.176 510.764,50.177 507.823,51.198 C504.605,52.318 501.426,53.546 498.269,54.83 C496.55,55.53 494.822,56.205 493.103,56.902 C492.29,57.233 491.48,57.571 490.673,57.915 C490.479,57.883 490.285,57.851 490.092,57.82 C489.957,57.799 489.828,57.785 489.704,57.785 C489.482,57.785 489.272,57.829 489.058,57.957 C488.756,58.133 488.531,58.424 488.439,58.758 C488.429,58.799 488.426,58.841 488.419,58.882 C488.33,58.921 488.241,58.958 488.152,58.997 C485.911,59.934 483.652,60.811 481.384,61.676 C479.856,62.258 478.341,62.87 476.827,63.487 C479.74,59.866 482.671,56.258 485.731,52.76 C486.598,51.769 487.467,50.784 488.346,49.807 C489.106,48.961 489.907,48.153 490.709,47.344 C492.255,45.783 493.907,44.332 495.637,42.98 C496.564,42.283 497.493,41.589 498.438,40.918 C499.411,40.227 500.431,39.609 501.422,38.947 C502.904,37.954 504.351,36.906 505.781,35.838 C506.287,36.073 506.794,36.303 507.302,36.528 C508.868,37.221 510.467,37.763 512.112,38.226 C512.401,38.307 512.691,38.381 512.982,38.454 Z M197.065,129.129 C199.207,130.754 201.356,132.357 203.566,133.884 C205.777,135.412 207.975,136.953 210.106,138.589 C210.151,138.624 210.196,138.658 210.243,138.693 C211.37,139.579 212.479,140.488 213.581,141.405 C213.597,141.934 213.815,142.59 214.237,142.929 C217.553,145.602 220.85,148.291 224.053,151.098 C225.738,153.043 227.411,154.995 229.015,157.009 C231.352,160.08 233.67,163.171 235.862,166.347 C237.01,168.013 238.087,169.735 239.162,171.449 C240.21,173.124 241.197,174.835 242.133,176.572 C243.815,179.691 245.393,182.866 246.899,186.073 C246.64,186.348 246.374,186.615 246.092,186.867 C246.461,187.917 246.808,188.975 247.138,190.04 C248.186,193.434 248.947,196.949 249.444,200.467 C249.524,201.103 249.597,201.742 249.67,202.38 C249.694,202.583 249.712,202.792 249.732,203.002 C248.329,202.978 246.926,202.932 245.526,202.846 C244.558,200.505 243.691,198.124 242.691,195.795 C241.831,193.794 240.812,191.851 239.725,189.96 C238.851,190.117 237.96,190.18 237.07,190.158 C236.644,189.448 236.217,188.739 235.785,188.034 C233.387,184.12 230.854,180.301 228.25,176.522 C225.664,172.77 222.921,169.134 220.187,165.489 C218.72,163.534 217.209,161.607 215.563,159.798 C214.337,158.452 213.039,157.181 211.729,155.921 C212.066,155.14 212.47,154.389 212.95,153.689 C211.837,152.426 210.699,151.186 209.52,149.984 C207.642,148.072 205.745,146.179 203.82,144.313 C201.873,142.423 199.939,140.514 197.931,138.689 C195.79,136.743 193.528,134.948 191.213,133.215 C189.176,131.69 187.033,130.232 184.765,129.069 C182.208,127.758 179.575,126.567 176.838,125.68 C174.267,124.848 171.577,124.375 168.917,123.912 C166.272,123.451 163.624,122.998 160.962,122.637 C158.475,122.301 155.98,122.039 153.483,121.79 C153.803,120.06 154.108,118.328 154.379,116.589 C154.56,115.426 154.699,114.258 154.842,113.09 C155.019,111.65 154.972,110.243 154.678,108.822 C154.584,108.373 154.421,107.934 154.277,107.5 C154.083,106.921 153.903,106.35 153.777,105.757 C153.736,105.242 153.736,104.735 153.777,104.219 C153.901,103.519 154.097,102.848 154.34,102.176 C154.619,101.566 154.937,100.989 155.319,100.434 C155.765,99.916 156.259,99.467 156.789,99.039 C157.574,98.466 158.368,97.872 159.2,97.361 C159.548,97.711 159.878,98.078 160.223,98.435 C160.76,98.988 161.298,99.536 161.838,100.083 C162.805,101.058 163.831,101.957 164.877,102.844 C166.886,104.547 168.98,106.15 171.036,107.796 C175.361,111.259 179.617,114.801 183.846,118.378 C185.969,120.174 188.066,122.004 190.201,123.784 C192.428,125.641 194.754,127.377 197.065,129.129 Z M262.153,172.88 C264.686,172.937 267.219,172.823 269.748,172.737 C272.343,172.648 274.939,172.558 277.537,172.507 C280.138,172.456 282.741,172.515 285.342,172.55 C290.424,172.617 295.506,172.839 300.588,172.837 C305.845,172.837 311.098,172.629 316.353,172.601 C321.382,172.572 326.405,172.829 331.432,172.843 C336.585,172.86 341.732,172.813 346.886,172.955 C350.988,173.068 355.067,173.425 359.14,173.932 C361.491,174.26 363.845,174.56 366.195,174.874 C370.651,175.509 375.089,176.235 379.498,177.124 C381.878,177.605 384.256,178.096 386.601,178.727 C388.632,179.269 390.6,180.022 392.543,180.825 C395.989,182.375 399.351,184.111 402.735,185.787 C406.125,187.465 409.492,189.19 412.793,191.036 C414.549,192.019 416.287,193.026 417.989,194.101 C419.617,195.129 421.236,196.167 422.869,197.184 C425.869,199.056 428.822,201.004 431.652,203.129 C433.121,204.287 434.566,205.476 435.984,206.702 C437.673,208.164 439.294,209.697 440.903,211.251 C444.276,214.506 447.555,217.865 451.016,221.03 C452.676,222.551 454.344,224.064 455.989,225.602 C457.692,227.197 459.326,228.867 460.964,230.529 C464.214,233.826 467.395,237.191 470.283,240.819 C472.302,243.464 474.258,246.154 476.136,248.905 C478.212,251.947 480.103,255.114 481.999,258.269 C483.83,261.314 485.702,264.328 487.423,267.436 C489.179,270.603 490.676,273.915 492.138,277.224 C492.95,279.176 493.745,281.134 494.522,283.102 C495.308,285.084 496.015,287.094 496.728,289.101 C497.438,291.092 498.018,293.147 498.556,295.189 C499.118,297.334 499.646,299.489 500.096,301.661 C501.888,310.365 503.656,319.077 504.936,327.87 C505.367,331.343 505.634,334.818 505.714,338.319 C505.806,342.353 505.83,346.391 505.748,350.427 C505.658,354.719 505.485,359.009 505.242,363.295 C505.024,367.19 504.643,371.068 504.155,374.939 C503.587,379.079 502.991,383.217 502.453,387.362 C501.917,391.503 501.556,395.663 501.042,399.804 C500.263,404.954 499.386,410.087 498.46,415.209 C497.575,420.107 496.231,424.914 494.936,429.715 C493.601,434.664 492.544,439.671 491.41,444.667 C490.863,447.075 490.307,449.485 489.683,451.874 C488.989,454.522 488.239,457.151 487.445,459.771 C486.311,463.511 485.099,467.229 483.828,470.927 C482.517,474.746 481.079,478.514 479.58,482.262 C478.658,484.427 477.723,486.582 476.735,488.719 C475.665,491.032 474.614,493.359 473.462,495.633 C472.83,496.883 472.196,498.123 471.515,499.348 C470.811,500.614 470.069,501.852 469.32,503.093 C468.064,505.173 466.71,507.195 465.374,509.222 C462.375,513.774 459.399,518.342 456.31,522.833 C453.255,527.276 450.174,531.704 447.027,536.086 C445.937,537.603 444.812,539.092 443.685,540.581 C442.526,542.069 441.361,543.552 440.152,544.998 C438.739,546.684 437.277,548.32 435.786,549.937 C432.803,553.171 429.714,556.311 426.645,559.467 C423.804,562.386 420.933,565.297 417.877,567.993 C416.974,568.79 416.068,569.59 415.165,570.386 C414.396,571.066 413.585,571.696 412.796,572.35 C411.142,573.721 409.447,575.045 407.765,576.379 C406.125,577.636 404.487,578.905 402.784,580.078 C400.674,581.529 398.539,582.923 396.341,584.24 C394.179,585.535 391.941,586.691 389.698,587.845 C387.678,588.884 385.589,589.787 383.509,590.696 C381.117,591.65 378.719,592.583 376.312,593.496 C373.623,594.515 370.896,595.45 368.184,596.412 C362.985,598.256 357.728,599.938 352.485,601.647 C347.373,603.315 342.289,605.075 337.186,606.778 C332.064,608.489 326.934,610.167 321.771,611.756 C316.275,613.446 310.715,614.862 305.067,615.938 C302.247,616.474 299.411,616.892 296.576,617.34 C293.769,617.782 290.962,618.228 288.149,618.642 C283.061,619.309 277.966,619.832 272.853,620.28 C267.728,620.733 262.593,621.057 257.448,621.144 C246.697,621.328 235.948,621.035 225.199,620.749 C222.65,620.681 220.103,620.586 217.562,620.417 C214.876,620.235 212.201,619.972 209.527,619.664 C204.714,619.008 199.904,618.294 195.136,617.36 C189.726,616.3 184.317,615.226 178.936,614.034 C173.868,612.912 168.935,611.221 163.983,609.692 C161.659,608.974 159.354,608.228 157.064,607.41 C154.715,606.57 152.431,605.53 150.137,604.557 C150.341,604.642 150.545,604.728 150.75,604.816 C148.238,603.748 145.736,602.661 143.248,601.539 C142.004,600.98 140.772,600.399 139.541,599.811 C138.278,599.21 137.016,598.6 135.801,597.905 C131.123,595.229 126.689,592.158 122.409,588.887 C118.348,585.702 114.351,582.439 110.475,579.031 C108.541,577.333 106.645,575.591 104.736,573.868 C102.815,572.135 100.857,570.446 98.883,568.774 C96.844,567.049 94.813,565.319 92.837,563.522 C90.875,561.74 88.975,559.894 87.072,558.05 C83.434,554.519 79.753,551.042 76.115,547.512 C73.651,545.124 71.222,542.704 68.852,540.218 C66.683,537.937 64.627,535.57 62.662,533.113 C61.997,532.234 61.334,531.35 60.695,530.451 C59.915,529.354 59.168,528.237 58.417,527.119 C56.913,524.88 55.522,522.559 54.115,520.257 C51.407,515.828 48.854,511.321 46.392,506.751 C41.457,497.591 36.448,488.468 31.58,479.271 C30.041,476.363 28.566,473.435 27.162,470.46 C25.814,467.598 24.484,464.727 23.132,461.866 C21.7,458.834 20.252,455.805 18.813,452.777 C17.503,450.024 16.284,447.232 15.093,444.43 C13.364,440.201 11.657,435.967 10.097,431.673 C9.293,429.456 8.724,427.161 8.155,424.878 C7.621,422.742 7.278,420.558 6.96,418.383 C6.707,416.306 6.487,414.23 6.314,412.144 C6.13,409.974 6.016,407.801 5.886,405.627 C5.745,403.296 5.637,400.967 5.58,398.632 C5.526,396.439 5.582,394.243 5.608,392.049 C5.663,387.344 5.714,382.641 5.89,377.939 C5.973,375.677 6.087,373.416 6.259,371.156 C6.438,368.789 6.715,366.433 6.999,364.078 C7.517,360.305 8.1,356.551 8.83,352.813 C9.646,348.633 10.372,344.446 11.008,340.236 C11.575,336.499 12.099,332.757 12.674,329.022 C13.313,324.875 13.81,320.713 14.354,316.552 C15.236,310.616 16.363,304.7 17.742,298.859 C18.443,295.882 19.208,292.896 20.138,289.982 C21.029,287.195 22.061,284.472 23.165,281.762 C23.893,280.116 24.639,278.485 25.414,276.86 C26.158,275.297 27.035,273.797 27.883,272.289 C28.791,270.677 29.833,269.126 30.828,267.566 C31.893,265.9 32.976,264.248 34.046,262.589 C35.987,259.578 37.98,256.619 40.103,253.736 C42.281,250.777 44.459,247.822 46.671,244.889 C49.575,241.206 52.585,237.613 55.626,234.042 C57.035,232.384 58.46,230.737 59.925,229.126 C60.752,228.212 61.581,227.301 62.435,226.411 C63.397,225.41 64.38,224.439 65.376,223.471 C66.926,221.964 68.537,220.514 70.115,219.037 C71.883,217.384 73.633,215.713 75.432,214.094 C77.332,212.385 79.268,210.729 81.249,209.116 C83.005,207.685 84.786,206.278 86.568,204.877 C87.951,203.843 89.335,202.823 90.747,201.828 C92.184,200.81 93.681,199.878 95.176,198.944 C98.268,197.011 101.498,195.312 104.736,193.642 C107.801,192.06 110.925,190.591 114.047,189.129 C117.223,187.642 120.4,186.168 123.614,184.767 C125.47,183.992 127.325,183.215 129.206,182.506 C131.41,181.674 133.629,180.888 135.862,180.13 C139.973,178.737 144.164,177.621 148.412,176.738 C152.535,175.882 156.699,175.15 160.87,174.574 C165.301,173.961 169.72,173.27 174.147,172.631 C177.514,172.195 180.889,171.864 184.262,171.479 C186.106,171.269 187.949,171.069 189.797,170.896 C191.648,170.722 193.508,170.682 195.364,170.633 C197.161,170.586 198.968,170.67 200.764,170.714 C202.669,170.763 204.572,170.822 206.476,170.863 C207.141,170.878 207.806,170.892 208.473,170.906 C208.793,170.969 209.111,170.975 209.431,170.92 C210.379,170.934 211.328,170.937 212.276,170.916 C213.092,170.899 213.914,170.905 214.73,170.865 C214.628,170.733 214.533,170.597 214.432,170.464 C214.619,170.577 214.803,170.695 214.994,170.797 C215.715,171.181 216.472,171.497 217.257,171.723 C217.608,171.823 217.971,171.882 218.33,171.939 C218.544,171.974 218.77,172.009 218.989,172.023 C219.205,172.039 219.421,172.037 219.637,172.042 C219.656,172.048 219.674,172.053 219.693,172.059 C220.662,173.417 221.629,174.777 222.568,176.155 C225.13,179.913 227.675,183.69 230.032,187.579 C231.466,189.943 232.895,192.312 234.249,194.722 C234.894,195.873 235.536,197.025 236.124,198.206 C236.782,199.534 237.386,200.88 238.119,202.169 C236.202,201.892 234.289,201.593 232.385,201.234 C230.086,200.802 227.792,200.345 225.494,199.921 C223.169,199.493 220.846,199.058 218.53,198.595 C216.374,198.163 214.235,197.654 212.1,197.129 C209.624,196.519 207.15,195.907 204.658,195.359 C202.417,194.865 200.156,194.392 197.967,193.691 C197.913,193.625 197.845,193.57 197.764,193.532 C197.421,193.371 197.081,193.206 196.74,193.04 C196.267,192.812 195.826,192.525 195.345,192.308 C194.841,192.082 194.287,192.104 193.86,192.484 C193.652,192.667 193.487,192.865 193.412,193.14 C193.308,193.52 193.406,193.96 193.577,194.303 C193.862,194.882 194.366,195.241 194.866,195.624 C195.292,195.95 195.82,196.207 196.303,196.43 C196.966,196.734 197.621,197.062 198.298,197.331 C198.875,197.557 199.45,197.786 200.027,198.012 C200.576,198.23 201.149,198.402 201.709,198.592 C202.672,198.92 203.645,199.218 204.613,199.528 C206.824,200.235 209.026,200.971 211.229,201.71 C212.316,202.072 213.405,202.46 214.51,202.77 C215.652,203.092 216.794,203.402 217.942,203.694 C222.392,204.825 226.883,205.815 231.369,206.793 C233.502,207.259 235.666,207.689 237.832,207.98 C239.279,208.178 240.725,208.374 242.179,208.529 C243.391,208.659 244.602,208.759 245.815,208.861 C250.333,209.24 254.878,209.238 259.403,209.027 C261.63,208.921 263.851,208.696 266.063,208.421 C268.712,208.093 271.357,207.738 273.999,207.352 C276.329,207.011 278.638,206.489 280.938,205.988 C283.107,205.517 285.273,205.031 287.443,204.558 C291.924,203.584 296.414,202.646 300.898,201.687 C305.347,200.735 309.809,199.788 314.192,198.571 C318.648,197.335 323.104,196.036 327.434,194.405 C328.644,193.95 329.828,193.426 330.996,192.877 C332.18,192.322 333.276,191.639 334.194,190.697 C335.199,189.661 335.43,188.071 334.693,186.812 C334.136,185.858 333.03,185.209 331.917,185.209 C331.634,185.209 331.351,185.251 331.076,185.34 C330.075,185.664 329.133,186.101 328.183,186.55 C327.658,186.797 327.13,187.036 326.598,187.268 C324.504,188.082 322.368,188.778 320.229,189.466 C318.145,190.136 316.047,190.769 313.937,191.362 C309.433,192.634 304.884,193.703 300.319,194.747 C298.025,195.271 295.723,195.757 293.427,196.264 C291.271,196.739 289.126,197.258 286.975,197.758 C284.69,198.29 282.408,198.824 280.126,199.37 C277.94,199.897 275.75,200.417 273.541,200.845 C270.784,201.38 268.004,201.78 265.222,202.17 C262.98,202.442 260.746,202.675 258.49,202.823 C258.449,202.825 258.409,202.827 258.369,202.829 C258.363,202.731 258.355,202.631 258.343,202.519 C258.304,202.164 258.247,201.809 258.194,201.454 C258.104,200.869 258.006,200.284 257.88,199.705 C257.606,198.436 257.286,197.18 256.956,195.926 C256.299,193.434 255.567,190.954 254.698,188.528 C253.781,185.968 252.784,183.446 251.676,180.962 C250.64,178.639 249.555,176.318 248.338,174.085 C248.161,173.76 247.977,173.44 247.795,173.117 C249.193,173.397 250.595,173.66 251.999,173.917 C252.504,174.011 252.967,173.999 253.424,173.732 C253.838,173.489 254.148,173.087 254.275,172.626 C254.297,172.544 254.307,172.46 254.317,172.376 C254.406,172.386 254.495,172.395 254.583,172.405 C257.103,172.688 259.618,172.823 262.153,172.88 Z M547.233,37.894 C544.867,37.372 542.44,37.18 540.032,36.953 C537.949,36.758 535.869,36.524 533.791,36.261 C531.442,35.927 529.102,35.554 526.754,35.208 C524.395,34.861 522.033,34.549 519.69,34.103 C517.282,33.646 514.884,33.162 512.512,32.536 C510.42,31.983 508.401,31.143 506.405,30.308 C504.9,29.649 503.371,28.982 501.963,28.132 C500.62,27.321 499.32,26.44 498.061,25.507 C497.173,24.797 496.346,24.044 495.589,23.191 C495.128,22.534 494.73,21.86 494.383,21.127 C494.199,20.737 494.04,20.333 493.867,19.94 C493.581,19.293 493.204,18.712 492.768,18.159 C492.229,17.478 491.55,16.926 490.761,16.556 C489.852,16.132 488.885,15.992 487.888,15.957 C487.058,15.929 486.238,15.928 485.411,15.86 C485.079,15.798 484.759,15.717 484.439,15.606 C484.352,15.559 484.266,15.51 484.181,15.456 C484.176,15.45 484.17,15.445 484.164,15.44 C484.044,14.974 483.983,14.497 483.911,14.02 C483.84,13.555 483.739,13.098 483.638,12.639 C483.448,11.779 483.103,10.957 482.704,10.176 C482.446,9.672 482.053,9.225 481.686,8.799 C481.295,8.343 480.765,7.991 480.283,7.639 C479.908,7.362 479.429,7.149 478.99,6.994 C478.348,6.768 477.709,6.654 477.032,6.574 C476.266,6.487 475.509,6.448 474.738,6.419 C473.873,6.386 473.007,6.399 472.143,6.407 C470.248,6.426 468.357,6.445 466.465,6.454 C465.622,6.458 464.778,6.445 463.938,6.407 C463.442,6.385 462.945,6.362 462.447,6.338 C462.045,6.32 461.641,6.265 461.238,6.218 C460.057,6.004 458.891,5.775 457.764,5.351 C457.336,5.131 456.936,4.89 456.549,4.614 C455.657,3.781 454.962,2.772 454.086,1.923 C453.456,1.311 452.65,0.777 451.809,0.505 C451.115,0.282 450.413,0.187 449.704,0.187 C449.26,0.187 448.812,0.224 448.362,0.291 C446.172,0.615 444.028,1.282 441.916,1.937 C440.138,2.488 438.376,3.089 436.63,3.732 C435.687,4.08 434.754,4.448 433.817,4.812 C432.643,5.272 431.487,5.745 430.25,6.011 C429.957,6.04 429.676,6.054 429.38,6.045 C429.349,6.035 429.317,6.026 429.286,6.017 C429.252,5.998 429.219,5.979 429.186,5.958 C429.099,5.879 429.015,5.796 428.936,5.707 C428.404,4.945 428.041,4.076 427.604,3.259 C427.217,2.531 426.762,1.862 426.179,1.276 C425.452,0.552 424.357,0.297 423.372,0.444 C422.161,0.624 420.992,1.093 419.845,1.513 C418.972,1.831 418.115,2.194 417.255,2.545 C413.903,3.913 410.703,5.631 407.417,7.145 C406.469,7.532 405.519,7.856 404.508,8.048 C404.177,8.077 403.861,8.083 403.522,8.068 C402.987,7.97 402.484,7.837 401.976,7.644 C401.82,7.567 401.671,7.48 401.528,7.382 C401.497,7.356 401.467,7.328 401.435,7.302 C401.481,7.239 401.529,7.176 401.575,7.113 C401.834,6.752 401.714,6.199 401.418,5.903 C401.232,5.718 400.978,5.612 400.715,5.612 C400.425,5.612 400.228,5.732 400.009,5.903 C399.974,5.931 399.938,5.959 399.903,5.987 C399.273,5.463 398.618,4.973 397.879,4.604 C397.353,4.341 396.788,4.174 396.22,4.046 C395.478,3.876 394.659,3.856 393.913,4.003 C392.628,4.256 391.361,4.871 390.281,5.61 C388.378,6.911 386.528,8.32 384.755,9.792 C382.934,11.303 381.146,12.847 379.389,14.429 C378.567,15.166 377.776,15.937 376.977,16.695 C375.748,17.857 374.612,19.105 373.307,20.186 C372.734,20.611 372.149,20.991 371.507,21.302 C371.31,21.37 371.108,21.422 370.904,21.46 C370.687,21.476 370.473,21.473 370.258,21.452 C370.133,21.429 370.01,21.399 369.889,21.362 C369.275,21.022 368.727,20.573 368.146,20.182 C367.204,19.548 365.965,19.156 364.833,19.416 C363.801,19.652 362.869,20.156 361.996,20.743 C361.439,21.116 360.887,21.502 360.364,21.924 C358.47,23.466 356.706,25.138 354.975,26.859 C353.178,28.65 351.487,30.536 349.827,32.453 C349.12,33.271 348.447,34.121 347.749,34.947 C346.465,36.471 345.228,38.083 343.678,39.346 C343.401,39.538 343.131,39.706 342.838,39.858 C342.752,39.885 342.667,39.911 342.582,39.938 C342.561,39.94 342.539,39.942 342.519,39.943 C342.516,39.943 342.513,39.942 342.51,39.941 C342.496,39.934 342.481,39.927 342.467,39.919 C341.74,39.243 341.239,38.358 340.395,37.792 C339.951,37.492 339.486,37.28 338.958,37.172 C338.375,37.052 337.794,37.139 337.225,37.292 C336.988,37.392 336.752,37.492 336.515,37.592 C336.095,37.824 335.716,38.083 335.332,38.373 C335.014,38.611 334.704,38.865 334.39,39.111 C333.936,39.47 333.484,39.837 333.044,40.212 C331.08,41.893 329.153,43.61 327.261,45.368 C325.464,47.036 323.727,48.769 321.987,50.494 C320.97,51.504 319.952,52.505 318.91,53.486 C317.879,54.459 316.802,55.379 315.69,56.262 C314.734,56.984 313.754,57.645 312.669,58.163 C312.502,58.223 312.331,58.272 312.157,58.309 C312.038,58.315 311.918,58.32 311.798,58.326 C311.766,58.319 311.735,58.31 311.704,58.301 C311.682,58.286 311.659,58.271 311.637,58.256 C311.578,58.2 311.522,58.142 311.469,58.081 C311.204,57.712 310.951,57.336 310.686,56.969 C310.17,56.261 309.57,55.664 308.769,55.293 C307.903,54.889 306.951,54.802 306.066,55.185 C305.308,55.513 304.676,56.035 304.035,56.545 C302.562,57.716 301.245,59.057 299.944,60.411 C298.58,61.831 297.311,63.342 296.06,64.859 C294.859,66.311 293.69,67.788 292.537,69.277 C292.433,69.413 292.327,69.549 292.223,69.683 C292.225,69.681 292.226,69.679 292.228,69.677 C292.225,69.682 292.221,69.686 292.218,69.69 C292.193,69.721 292.17,69.752 292.146,69.782 C292.159,69.765 292.173,69.748 292.186,69.731 C291.975,70.005 291.763,70.279 291.551,70.553 C291.485,70.638 291.418,70.726 291.351,70.812 C291.209,70.966 291.09,71.143 290.965,71.31 C290.194,72.293 289.425,73.265 288.473,74.076 C288.369,74.146 288.263,74.21 288.153,74.268 C288.058,74.177 287.967,74.079 287.881,73.977 C287.605,73.611 287.333,73.243 287.048,72.886 C286.54,72.25 285.985,71.713 285.288,71.285 C284.67,70.908 283.813,70.73 283.106,70.908 C282.192,71.138 281.475,71.719 280.773,72.323 C280.041,72.953 279.389,73.699 278.754,74.427 C278.159,75.115 277.575,75.81 277.007,76.518 C275.718,78.121 274.441,79.736 273.234,81.4 C272.131,82.922 271.034,84.444 269.895,85.939 C269.271,86.692 268.627,87.403 267.875,88.022 C267.817,88.062 267.758,88.098 267.698,88.133 C267.69,88.125 267.683,88.116 267.675,88.108 C267.483,87.828 267.303,87.543 267.128,87.251 C266.725,86.578 266.092,85.864 265.231,85.874 C264.874,85.878 264.579,85.919 264.255,86.082 C263.768,86.329 263.441,86.682 263.099,87.102 C262.803,87.467 262.534,87.858 262.267,88.244 C261.273,89.676 260.388,91.177 259.434,92.635 C258.339,94.3 257.211,95.946 256.083,97.592 C255.059,99.085 254.019,100.57 252.918,102.008 C252.297,102.793 251.639,103.531 250.883,104.195 C250.459,104.568 250.037,104.942 249.613,105.315 C249.041,105.818 248.428,106.278 247.828,106.747 C247.124,107.251 246.418,107.749 245.712,108.248 C245.525,108.287 245.338,108.325 245.152,108.366 C243.658,108.697 242.214,109.189 240.751,109.635 C239.143,110.125 237.527,110.59 235.896,111.006 C234.338,111.403 232.762,111.734 231.186,112.062 C228.478,112.624 225.749,113.05 223.012,113.43 C221.391,113.635 219.775,113.82 218.144,113.913 C217.257,113.965 216.374,113.977 215.485,113.991 C214.696,114.005 213.904,113.956 213.115,113.932 C211.459,113.881 209.801,113.738 208.149,113.63 C206.499,113.522 204.852,113.384 203.206,113.242 C202.592,113.19 201.979,113.131 201.365,113.09 C200.906,113.061 200.445,113.03 199.986,113.002 C199.717,112.984 199.444,112.953 199.175,112.951 C198.414,112.949 197.655,112.947 196.896,112.943 C196.605,112.943 196.31,112.975 196.018,112.992 C195.567,113.016 195.114,113.043 194.664,113.067 C192.199,113.204 189.737,113.407 187.276,113.614 C185.817,112.463 184.357,111.315 182.888,110.177 C180.594,108.399 178.271,106.664 175.914,104.967 C173.65,103.334 171.362,101.733 169.103,100.094 C168.753,99.842 168.413,99.579 168.068,99.32 C167.471,98.851 166.877,98.378 166.294,97.891 C165.586,97.302 164.916,96.667 164.241,96.041 C163.606,95.452 162.993,94.842 162.36,94.251 C161.606,93.541 160.668,92.831 159.593,92.791 C159.54,92.788 159.487,92.786 159.434,92.786 C158.871,92.786 158.331,92.909 157.833,93.192 C157.55,93.353 157.274,93.521 157.003,93.704 C156.334,94.161 155.661,94.62 155.007,95.099 C154.56,95.427 154.122,95.764 153.686,96.104 C152.837,96.771 152.168,97.546 151.521,98.404 C150.793,99.375 150.316,100.542 149.909,101.674 C149.519,102.755 149.358,103.923 149.321,105.067 C149.283,106.201 149.538,107.341 149.878,108.414 C150.102,109.119 150.312,109.813 150.447,110.534 C150.524,111.972 150.329,113.396 150.151,114.819 C149.802,117.039 149.408,119.251 148.997,121.461 C148.548,121.577 148.112,121.844 147.813,122.142 C147.342,122.613 147.075,123.26 147.075,123.924 C147.075,124.589 147.342,125.236 147.813,125.706 C148.321,126.214 148.902,126.373 149.593,126.443 C152.244,126.71 154.894,126.971 157.536,127.299 C160.876,127.777 164.211,128.331 167.513,129.012 C169.287,129.377 171.065,129.765 172.814,130.232 C174.428,130.662 175.996,131.198 177.544,131.818 C179.373,132.624 181.2,133.472 182.913,134.502 C184.726,135.589 186.451,136.788 188.14,138.054 C190.083,139.573 191.976,141.154 193.781,142.837 C195.767,144.688 197.678,146.617 199.609,148.524 C201.518,150.406 203.384,152.329 205.248,154.257 C205.45,154.467 205.646,154.683 205.846,154.895 C205.822,155.439 206.005,155.989 206.419,156.386 C207.844,157.754 209.272,159.118 210.672,160.512 C210.672,160.513 210.673,160.514 210.674,160.515 C210.674,160.515 210.674,160.515 210.674,160.514 C210.791,160.631 210.91,160.744 211.026,160.86 C212.387,162.229 213.633,163.706 214.833,165.216 C215.793,166.488 216.698,167.799 217.608,169.107 C217.603,169.105 217.597,169.103 217.591,169.1 C215.729,168.254 214.107,166.985 212.489,165.75 C212.316,165.618 212.068,165.564 211.83,165.564 C211.692,165.564 211.558,165.582 211.443,165.613 C211.44,165.614 211.437,165.616 211.434,165.617 C211.344,165.372 211.261,165.124 211.186,164.872 C211.071,164.889 210.956,164.907 210.84,164.927 C210.424,164.996 210.01,165.116 209.611,165.249 C208.95,165.465 208.267,165.722 207.675,166.085 C207.015,166.489 206.564,167.146 206.425,167.876 C205.779,167.857 205.132,167.837 204.486,167.817 C202.214,167.741 199.942,167.678 197.668,167.621 C195.201,167.559 192.742,167.661 190.28,167.808 C188.149,167.935 186.022,168.226 183.903,168.469 C181.837,168.706 179.766,168.905 177.698,169.134 C173.077,169.646 168.484,170.37 163.882,171.022 C161.457,171.341 159.028,171.63 156.609,171.993 C153.934,172.395 151.267,172.856 148.599,173.322 C143.52,174.216 138.549,175.588 133.643,177.162 C128.696,178.751 123.826,180.58 119.048,182.622 C116.566,183.68 114.096,184.769 111.623,185.846 C109.388,186.821 107.155,187.798 104.954,188.85 C100.138,191.152 95.323,193.536 90.832,196.438 C89.69,197.174 88.559,197.914 87.441,198.685 C86.319,199.456 85.228,200.263 84.131,201.065 C81.91,202.69 79.757,204.418 77.593,206.118 C75.495,207.764 73.423,209.443 71.437,211.225 C69.422,213.033 67.409,214.844 65.394,216.655 C63.497,218.36 61.554,220.032 59.759,221.843 C57.831,223.789 55.971,225.785 54.131,227.815 C52.302,229.833 50.52,231.893 48.735,233.948 C47.034,235.91 45.325,237.87 43.688,239.885 C40.194,244.176 36.869,248.611 33.53,253.026 C31.964,255.094 30.506,257.238 29.07,259.397 C27.537,261.707 25.995,264.01 24.476,266.328 C22.987,268.6 21.637,270.937 20.364,273.333 C19.09,275.736 18.013,278.252 16.969,280.76 C15.523,284.238 14.259,287.776 13.27,291.41 C12.744,293.339 12.226,295.266 11.769,297.214 C11.326,299.112 10.937,301.021 10.56,302.934 C9.848,306.539 9.224,310.171 8.73,313.813 C8.21,317.651 7.819,321.506 7.321,325.345 C6.577,330.433 5.877,335.53 5.145,340.62 C4.782,343.151 4.36,345.676 3.899,348.19 C3.412,350.859 2.886,353.52 2.449,356.198 C2.015,358.88 1.634,361.576 1.319,364.273 C1.148,365.757 0.981,367.237 0.83,368.721 C0.693,370.061 0.61,371.405 0.51,372.747 C0.318,375.372 0.247,378.018 0.187,380.649 C0.123,383.533 0.082,386.414 0.055,389.298 C0.031,391.889 0.002,394.484 0,397.076 C-0.004,399.621 0.126,402.168 0.29,404.709 C0.459,407.321 0.618,409.935 0.851,412.544 C1.105,415.379 1.452,418.199 1.882,421.01 C2.659,426.115 4.064,431.137 5.892,435.961 C7.876,441.198 9.907,446.416 12.122,451.561 C14.243,456.492 16.561,461.34 18.813,466.212 C20.98,470.906 23.077,475.635 25.434,480.24 C27.759,484.779 30.204,489.258 32.582,493.768 C35.127,498.593 37.709,503.396 40.282,508.205 C41.396,510.287 42.487,512.382 43.633,514.445 C45.003,516.913 46.415,519.353 47.85,521.784 C49.114,523.924 50.409,526.051 51.737,528.153 C53.146,530.382 54.547,532.637 56.127,534.755 C57.826,537.03 59.542,539.292 61.419,541.425 C63.251,543.503 65.147,545.513 67.079,547.498 C68.836,549.302 70.674,551.034 72.495,552.775 C74.365,554.564 76.239,556.35 78.121,558.127 C80.062,559.96 81.992,561.807 83.913,563.661 C85.724,565.407 87.535,567.161 89.417,568.831 C91.383,570.577 93.379,572.29 95.363,574.014 C97.339,575.729 99.279,577.481 101.194,579.265 C103.203,581.137 105.217,583.006 107.254,584.847 C109.171,586.583 111.166,588.235 113.144,589.899 C117.133,593.254 121.209,596.541 125.502,599.498 C126.665,600.3 127.835,601.089 129.012,601.867 C130.187,602.646 131.416,603.352 132.631,604.065 C133.729,604.708 134.889,605.26 136.031,605.815 C137.257,606.413 138.482,607.005 139.72,607.573 C142.161,608.697 144.619,609.78 147.088,610.843 C149.529,611.894 151.972,612.945 154.446,613.911 C156.736,614.806 159.083,615.533 161.428,616.259 C164.018,617.06 166.614,617.845 169.208,618.636 C171.714,619.401 174.241,620.057 176.784,620.688 C177.938,620.973 179.113,621.212 180.28,621.447 C181.595,621.712 182.908,621.981 184.224,622.24 C189.458,623.271 194.685,624.356 199.958,625.169 C205.487,626.018 211.028,626.848 216.616,627.204 C221.953,627.542 227.299,627.622 232.646,627.742 C237.963,627.86 243.281,627.95 248.6,627.991 C253.906,628.029 259.228,627.954 264.527,627.648 C267.207,627.495 269.882,627.281 272.558,627.058 C275.056,626.848 277.558,626.629 280.05,626.357 C283.054,626.029 286.05,625.66 289.043,625.248 C291.631,624.891 294.207,624.461 296.784,624.037 C301.862,623.205 306.982,622.542 311.995,621.35 C314.553,620.743 317.102,620.111 319.626,619.373 C322.145,618.635 324.659,617.888 327.157,617.076 C332.327,615.396 337.49,613.699 342.642,611.958 C347.738,610.232 352.849,608.548 357.963,606.878 C363.322,605.131 368.657,603.325 373.974,601.447 C376.672,600.493 379.349,599.477 382.024,598.462 C384.635,597.47 387.192,596.349 389.747,595.225 C390.369,594.952 390.977,594.636 391.591,594.343 C392.086,594.106 392.59,593.88 393.077,593.627 C394.366,592.964 395.659,592.307 396.928,591.605 C398.145,590.93 399.342,590.237 400.535,589.519 C401.746,588.792 402.925,588.014 404.11,587.244 C406.228,585.867 408.25,584.327 410.25,582.79 C412.616,580.97 414.942,579.109 417.264,577.235 C421.383,573.907 425.258,570.3 429,566.555 C432.717,562.833 436.343,559.015 439.961,555.198 C443.782,551.163 447.227,546.808 450.605,542.401 C453.761,538.286 456.699,534.006 459.691,529.772 C462.78,525.402 465.782,520.976 468.735,516.512 C470.257,514.217 471.773,511.916 473.283,509.612 C474.653,507.517 475.985,505.388 477.2,503.202 C479.841,498.455 482.095,493.493 484.356,488.556 C486.596,483.664 488.616,478.655 490.477,473.606 C492.346,468.53 494.126,463.43 495.743,458.268 C497.302,453.289 498.48,448.194 499.643,443.11 C500.21,440.629 500.752,438.143 501.35,435.667 C501.923,433.281 502.538,430.903 503.145,428.525 C503.772,426.06 504.395,423.593 504.933,421.106 C505.455,418.688 505.853,416.243 506.26,413.803 C507.186,408.273 508.146,402.732 508.675,397.149 C508.917,394.602 509.134,392.052 509.395,389.506 C509.653,386.977 509.976,384.453 510.281,381.926 C510.918,376.677 511.619,371.433 511.956,366.154 C512.299,360.76 512.533,355.356 512.582,349.952 C512.631,344.67 512.674,339.366 512.284,334.094 C511.896,328.816 511.03,323.604 510.135,318.391 C509.237,313.163 508.179,307.971 507.157,302.766 C506.658,300.228 506.109,297.703 505.512,295.184 C504.908,292.639 504.142,290.137 503.354,287.647 C502.618,285.326 501.747,283.034 500.862,280.769 C499.781,277.993 498.664,275.236 497.473,272.506 C495.439,267.846 493.121,263.329 490.484,258.983 C487.728,254.437 485.065,249.839 482.196,245.363 C480.845,243.254 479.396,241.194 477.929,239.165 C476.301,236.914 474.659,234.679 472.862,232.558 C471.158,230.545 469.357,228.62 467.557,226.697 C465.837,224.86 464.075,223.065 462.287,221.295 C460.531,219.555 458.689,217.902 456.873,216.227 C454.96,214.465 453.09,212.667 451.257,210.823 C447.761,207.311 444.28,203.771 440.456,200.614 C438.513,199.009 436.533,197.439 434.473,195.985 C432.501,194.593 430.472,193.279 428.429,191.992 C426.373,190.695 424.285,189.453 422.228,188.162 C420.056,186.802 417.828,185.556 415.564,184.355 C413.224,183.111 410.864,181.902 408.477,180.752 C406.28,179.693 404.063,178.68 401.853,177.652 C399.403,176.514 396.948,175.386 394.424,174.428 C392.106,173.547 389.762,172.806 387.357,172.213 C384.811,171.583 382.2,171.163 379.62,170.706 C377.218,170.282 374.808,169.915 372.395,169.57 C369.772,169.193 367.142,168.895 364.507,168.632 C361.978,168.379 359.462,168.039 356.934,167.792 C351.878,167.297 346.814,167.178 341.738,167.182 C336.729,167.186 331.722,167.309 326.713,167.223 C321.488,167.134 316.271,167.119 311.049,167.272 C305.922,167.421 300.802,167.531 295.675,167.451 C290.491,167.372 285.31,167.333 280.125,167.345 C275.141,167.356 270.165,167.657 265.184,167.727 C262.618,167.763 260.044,167.672 257.489,167.46 C255.048,167.258 252.622,166.891 250.185,166.642 C248.951,166.516 247.714,166.423 246.476,166.346 C246.287,166.285 246.099,166.221 245.91,166.16 C245.016,165.87 244.144,165.524 243.244,165.262 C243.126,165.228 243.005,165.212 242.884,165.212 C242.869,165.212 242.854,165.218 242.839,165.218 C241.73,163.593 240.588,161.993 239.377,160.434 C236.18,156.317 232.727,152.357 228.732,148.989 C228.121,148.474 227.504,147.966 226.889,147.455 C227.939,147.616 228.956,147.902 229.938,148.316 C228.029,146.314 226.064,144.388 224.035,142.509 C219.938,138.719 215.751,135.045 211.259,131.727 C209.122,130.148 206.917,128.666 204.766,127.108 C202.498,125.464 200.289,123.741 198.058,122.046 C197.226,121.416 196.398,120.784 195.57,120.148 C194.19,119.072 192.815,117.989 191.442,116.904 C193.172,116.777 194.902,116.659 196.634,116.561 C197.459,116.513 198.29,116.546 199.115,116.546 C199.937,116.544 200.765,116.632 201.587,116.679 C203.164,116.769 204.738,116.924 206.314,117.024 C209.691,117.239 213.084,117.456 216.47,117.321 C219.904,117.185 223.304,116.597 226.681,115.991 C229.864,115.423 233.027,114.682 236.147,113.836 C237.713,113.412 239.259,112.916 240.805,112.419 C241.354,112.241 241.9,112.056 242.448,111.873 C242.435,111.956 242.422,112.039 242.422,112.125 C242.422,113.032 243.181,113.793 244.088,113.793 C245.22,113.791 246.348,113.805 247.479,113.827 C248.195,113.842 248.921,113.825 249.635,113.878 C250.561,113.947 251.485,114.017 252.409,114.086 C253.04,114.135 253.673,114.227 254.304,114.309 C254.811,114.393 255.32,114.478 255.829,114.562 C256.836,114.728 257.808,115 258.761,115.361 C260.713,116.252 262.479,117.452 264.241,118.671 C265.095,119.26 265.931,119.874 266.779,120.471 C267.666,121.097 268.552,121.715 269.416,122.368 C270.209,122.993 270.993,123.631 271.78,124.264 C272.717,125.02 273.707,125.702 274.669,126.423 C275.046,126.749 275.426,127.076 275.755,127.452 C276.107,127.857 276.443,128.265 276.778,128.686 C277.777,129.981 278.793,131.256 279.872,132.489 C280.942,133.713 282.048,134.916 283.204,136.06 C284.488,137.326 285.809,138.519 287.287,139.561 C288.067,140.112 288.942,140.638 289.846,140.958 C290.282,141.111 290.706,141.221 291.172,141.25 C291.708,141.282 292.212,141.213 292.739,141.123 C292.907,141.097 293.078,141.042 293.241,140.999 C293.489,140.934 293.733,140.879 293.981,140.83 C294.101,140.825 294.219,140.826 294.338,140.833 C294.545,140.877 294.744,140.934 294.947,141.001 C296.372,141.686 297.728,142.55 299.071,143.379 C300.489,144.252 301.886,145.155 303.297,146.034 C304.519,146.793 305.75,147.531 307.039,148.171 C307.357,148.33 307.686,148.467 308.012,148.608 C308.385,148.769 308.754,148.911 309.14,149.042 C309.527,149.173 309.925,149.229 310.326,149.295 C311.248,149.444 312.131,149.407 313.037,149.189 C313.24,149.138 313.438,149.048 313.632,148.97 C313.927,148.853 314.21,148.746 314.509,148.657 C314.584,148.657 314.659,148.66 314.734,148.665 C315.133,148.74 315.522,148.834 315.918,148.94 C316.261,149.032 316.593,149.16 316.921,149.297 C318.769,150.148 320.614,151.001 322.473,151.829 C324.324,152.655 326.219,153.428 328.16,154.013 C329.208,154.328 330.257,154.609 331.323,154.858 C332.251,155.072 333.193,155.215 334.136,155.347 C335.191,155.498 336.254,155.598 337.318,155.649 C338.26,155.695 339.19,155.505 340.116,155.35 C340.45,155.335 340.768,155.344 341.102,155.37 C342.323,155.575 343.485,155.948 344.66,156.344 C345.561,156.648 346.428,157.048 347.321,157.374 C348.333,157.741 349.345,158.096 350.368,158.431 C351.318,158.745 352.297,158.971 353.274,159.192 C355.218,159.63 357.175,159.944 359.151,160.203 C360.04,160.319 360.939,160.415 361.839,160.423 C362.93,160.431 363.962,160.128 364.882,159.548 C365.311,159.278 365.689,158.902 366.07,158.563 C366.113,158.531 366.156,158.499 366.199,158.468 C366.393,158.34 366.597,158.234 366.806,158.137 C366.954,158.093 367.102,158.048 367.251,158.001 C367.966,157.95 368.665,158.018 369.375,158.107 C372.512,158.755 375.607,159.593 378.728,160.311 C380.213,160.654 381.714,160.915 383.223,161.125 C384.777,161.343 386.355,161.343 387.83,160.749 C388.364,160.533 388.861,160.264 389.347,159.954 C389.75,159.697 390.153,159.456 390.58,159.246 C391.19,159.042 391.803,158.891 392.433,158.743 C392.769,158.662 393.116,158.617 393.462,158.569 C394.56,158.466 395.646,158.394 396.752,158.408 C397.904,158.423 399.056,158.466 400.21,158.51 C402.68,158.606 405.144,158.639 407.617,158.598 C410.05,158.557 412.465,158.402 414.873,158.055 C416.023,157.89 417.148,157.678 418.265,157.35 C418.67,157.232 419.092,157.056 419.472,156.873 C419.899,156.665 420.311,156.443 420.699,156.165 C421.24,155.777 421.754,155.357 422.262,154.927 C422.472,154.788 422.675,154.671 422.898,154.561 C423.781,154.234 424.686,154.002 425.605,153.793 C426.513,153.588 427.423,153.38 428.332,153.169 C430.196,152.741 432.06,152.313 433.934,151.938 C435.847,151.554 437.77,151.214 439.671,150.765 C440.91,150.471 442.274,150.116 443.268,149.289 C443.737,148.897 444.167,148.442 444.359,147.847 C444.478,147.566 444.542,147.272 444.553,146.966 C444.575,146.639 444.553,146.318 444.487,145.997 C444.399,145.33 444.248,144.676 444.123,144.016 C444.117,143.917 444.116,143.818 444.119,143.719 C444.121,143.711 444.123,143.703 444.125,143.695 C444.151,143.647 444.179,143.6 444.208,143.554 C444.422,143.316 444.641,143.108 444.883,142.904 C445.569,142.45 446.282,142.081 447.031,141.75 C450.14,140.553 453.355,139.665 456.484,138.519 C458.253,137.871 459.979,137.143 461.579,136.137 C462.364,135.644 463.08,135.034 463.663,134.316 C464.308,133.527 464.709,132.63 465.072,131.685 C465.271,131.163 465.412,130.598 465.524,130.05 C465.655,129.395 465.798,128.761 466.018,128.134 C466.188,127.801 466.371,127.501 466.587,127.196 C467.249,126.395 467.981,125.681 468.785,125.021 C469.131,124.771 469.485,124.536 469.843,124.308 C469.862,124.315 469.879,124.327 469.898,124.332 C470.618,124.532 471.272,124.092 471.507,123.419 C471.519,123.385 471.524,123.351 471.534,123.317 C472.566,122.757 473.626,122.246 474.691,121.74 C476.052,121.092 477.438,120.5 478.807,119.87 C480.774,118.965 482.901,117.892 484.027,115.961 C484.196,115.669 484.303,115.32 484.404,115 C484.505,114.68 484.513,114.313 484.539,113.98 C484.565,113.656 484.505,113.264 484.441,112.948 C484.355,112.506 484.231,112.09 484.078,111.666 C483.762,110.793 483.311,109.977 483.127,109.065 C483.12,108.931 483.121,108.797 483.13,108.663 C483.146,108.582 483.168,108.503 483.194,108.425 C483.375,108.075 483.576,107.76 483.806,107.446 C484.405,106.757 485.066,106.14 485.774,105.565 C488.438,103.582 491.339,101.949 494.098,100.105 C494.911,99.56 495.698,98.99 496.469,98.386 C496.828,98.103 497.142,97.768 497.43,97.413 C497.611,97.385 497.794,97.365 497.976,97.335 C498.317,97.276 498.648,96.976 498.815,96.686 C499.007,96.362 499.059,95.966 498.958,95.601 C498.918,95.459 498.851,95.326 498.77,95.204 C498.978,94.701 499.145,94.182 499.277,93.671 C499.652,92.233 499.351,90.726 499.062,89.303 C498.896,88.482 498.673,87.674 498.529,86.847 C498.515,86.651 498.515,86.456 498.528,86.26 C498.564,86.069 498.616,85.883 498.682,85.699 C498.785,85.484 498.905,85.277 499.041,85.079 C499.375,84.687 499.731,84.342 500.126,84.007 C502.686,82.125 505.555,80.753 508.323,79.215 C509.763,78.415 511.151,77.55 512.38,76.445 C513.105,75.791 513.613,74.914 514.015,74.039 C514.386,73.233 514.635,72.395 514.777,71.524 C514.865,70.996 514.906,70.456 514.883,69.921 C514.93,69.885 514.978,69.853 515.023,69.807 C515.305,69.526 515.466,69.14 515.466,68.742 C515.466,68.465 515.378,68.19 515.229,67.951 C515.234,67.948 515.238,67.943 515.243,67.939 C515.465,67.77 515.696,67.617 515.938,67.478 C516.217,67.327 516.501,67.187 516.792,67.059 C517.654,66.698 518.522,66.351 519.374,65.969 C519.861,65.753 520.343,65.535 520.82,65.299 C521.165,65.127 521.503,64.954 521.844,64.772 C522.61,64.365 523.294,63.816 523.956,63.257 C524.389,62.89 524.756,62.421 525.086,61.964 C525.393,61.544 525.661,61.111 525.918,60.659 C526.53,59.58 527.007,58.407 527.224,57.184 C527.381,56.293 527.381,55.408 527.289,54.512 C527.267,54.284 527.233,54.058 527.203,53.831 C527.164,53.531 527.137,53.244 527.138,52.949 C527.162,52.924 527.187,52.898 527.211,52.872 C527.598,52.607 527.994,52.382 528.416,52.161 C528.771,51.976 529.13,51.798 529.485,51.615 C530.181,51.256 530.865,50.882 531.551,50.507 C532.958,49.733 534.339,48.911 535.713,48.081 C537.017,47.294 538.313,46.504 539.594,45.68 C540.035,45.396 540.478,45.113 540.926,44.841 C541.677,44.663 542.427,44.477 543.172,44.269 C543.587,44.152 543.899,43.802 543.976,43.385 C544.514,43.206 545.058,43.043 545.607,42.903 C545.648,42.892 545.685,42.873 545.724,42.859 C545.768,42.867 545.813,42.873 545.856,42.882 C546.562,43.016 547.215,42.994 547.851,42.621 C548.428,42.282 548.86,41.721 549.038,41.075 C549.398,39.77 548.609,38.199 547.233,37.894 L547.233,37.894 Z" id="Fill-7" fill="#262725"></path>
    </g>
</svg>